<svg xmlns="http://www.w3.org/2000/svg" viewBox="0 0 82.2 24.36"><defs><style>.cls-1{fill:#fff}</style></defs><g id="Слой_2" data-name="Слой 2"><g id="Слой_1-2" data-name="Слой 1"><path class="cls-1" d="M81.66 21.48a2.33 2.33 0 01-2.33 2.33H2.88a2.33 2.33 0 01-2.34-2.33V2.88A2.35 2.35 0 012.88.54h76.44a2.34 2.34 0 012.34 2.34z"/><path d="M79.32 24.36H2.88A2.88 2.88 0 010 21.48V2.88A2.88 2.88 0 012.88 0h76.44a2.88 2.88 0 012.88 2.88v18.6a2.87 2.87 0 01-2.88 2.88" fill="#a6a6a6"/><path d="M81.66 21.48a2.33 2.33 0 01-2.33 2.33H2.88a2.33 2.33 0 01-2.34-2.33V2.88A2.35 2.35 0 012.88.54h76.44a2.34 2.34 0 012.34 2.34z" fill="#231f20"/><path class="cls-1" d="M16.41 6.28a3.43 3.43 0 00.79-2.49A3.54 3.54 0 0014.91 5a3.3 3.3 0 00-.81 2.4 2.92 2.92 0 002.31-1.09m1.95 5.77a3.5 3.5 0 011.68-3 3.61 3.61 0 00-2.85-1.54c-1.2-.13-2.36.72-3 .72s-1.56-.71-2.58-.69a3.8 3.8 0 00-3.16 1.96c-1.37 2.39-.36 5.9 1 7.83.66.95 1.44 2 2.45 2s1.36-.63 2.55-.63 1.53.63 2.57.61 1.72-1 2.37-1.9a8.47 8.47 0 001.08-2.21 3.43 3.43 0 01-2.08-3.14m54.8 3.56a1.76 1.76 0 00-.26-1 1.13 1.13 0 00-1-.54 1.24 1.24 0 00-1 .53 1.92 1.92 0 00-.39 1zm1.24.34a3.92 3.92 0 01-.05.59h-3.9a1.67 1.67 0 00.57 1.32 1.87 1.87 0 001.27.41A4.23 4.23 0 0073.9 18l.2.91a4.9 4.9 0 01-2 .36 2.82 2.82 0 01-2.1-.77 2.94 2.94 0 01-.78-2.15 3.37 3.37 0 01.72-2.2 2.52 2.52 0 012-.94 2.18 2.18 0 011.91.94 3.27 3.27 0 01.58 1.85m-5.81-1.5a2 2 0 00-.41 0 1.21 1.21 0 00-1.06.52 1.91 1.91 0 00-.33 1.15v3.07h-1.29V13.4h1.13v1.12a1.94 1.94 0 01.65-.92 1.53 1.53 0 01.94-.32 1.69 1.69 0 01.33 0zm-5.57 1.76a2.62 2.62 0 00-.35-1.38 1.34 1.34 0 00-2.36 0 2.67 2.67 0 00-.35 1.4 2.62 2.62 0 00.35 1.38 1.3 1.3 0 001.18.7 1.32 1.32 0 001.17-.71 2.71 2.71 0 00.36-1.39m1.34 0a3.15 3.15 0 01-.77 2.21 2.71 2.71 0 01-2.14.89 2.61 2.61 0 01-2-.85 3.11 3.11 0 01-.76-2.15 3.21 3.21 0 01.78-2.23 2.74 2.74 0 012.13-.87 2.67 2.67 0 012.07.86 3 3 0 01.74 2.14M58 14.32h-1.49v2.84c0 .72.26 1.08.76 1.08a2.35 2.35 0 00.58-.06v1a2.79 2.79 0 01-1 .15 1.57 1.57 0 01-1.2-.47 2.32 2.32 0 01-.43-1.58v-2.96h-.86v-1h.86v-1.05l1.27-.38v1.45H58zm-4.31 2.59a2.17 2.17 0 01-.72 1.69 3.22 3.22 0 01-2.21.71 3.84 3.84 0 01-2.1-.51l.3-1.08a3.61 3.61 0 001.88.51 1.76 1.76 0 001.14-.33 1.1 1.1 0 00.41-.89 1.12 1.12 0 00-.34-.83 3.06 3.06 0 00-1.12-.62c-1.42-.53-2.13-1.31-2.13-2.32a2 2 0 01.76-1.64 3 3 0 012-.64 3.92 3.92 0 011.84.39l-.4 1.06a3.22 3.22 0 00-1.55-.41 1.55 1.55 0 00-1.07.34 1 1 0 00-.33.73 1 1 0 00.38.8 4.14 4.14 0 001.17.62 3.87 3.87 0 011.54 1 2.05 2.05 0 01.5 1.4m-8.84-.67a2.4 2.4 0 00-.39-1.41 1.38 1.38 0 00-2-.25 1.47 1.47 0 00-.51.83 1.68 1.68 0 00-.06.4v1a1.56 1.56 0 00.39 1.08 1.41 1.41 0 002.16-.13 2.48 2.48 0 00.41-1.49m1.32 0a3.32 3.32 0 01-.81 2.36 2.34 2.34 0 01-1.8.77 1.81 1.81 0 01-1.67-.83v3.07h-1.3V13.4h1.14l.08.93a2.31 2.31 0 013.7-.23 3.23 3.23 0 01.69 2.15m-8 0a2.39 2.39 0 00-.38-1.41 1.34 1.34 0 00-1.13-.57 1.3 1.3 0 00-.87.32 1.48 1.48 0 00-.52.83 2.57 2.57 0 00-.06.4v1a1.52 1.52 0 00.4 1.08 1.29 1.29 0 001 .44 1.32 1.32 0 001.14-.57 2.42 2.42 0 00.41-1.49m1.33 0a3.32 3.32 0 01-.81 2.36 2.41 2.41 0 01-1.81.77 1.82 1.82 0 01-1.67-.83v3.07h-1.36v-8.22h1.14l.07.93a2.31 2.31 0 013.7-.23 3.23 3.23 0 01.69 2.15m-9.07-.38l-.69-2.12c-.07-.21-.21-.72-.41-1.52-.08.34-.21.85-.39 1.52l-.67 2.12zm2.37 3.38h-1.41l-.76-2.38h-2.63l-.72 2.38h-1.35l2.61-8.11h1.61zM73.24 6.44c0-.44-.22-.75-.63-.75a.75.75 0 00-.7.75zm.58.46h-1.91a.82.82 0 00.9.85 2.13 2.13 0 00.78-.14l.1.45a2.37 2.37 0 01-1 .18 1.34 1.34 0 01-1.43-1.45 1.41 1.41 0 011.36-1.55c.74 0 1.18.55 1.2 1.37a1.43 1.43 0 010 .29m-3.46 1.28h-.64V6.54c0-.51-.19-.77-.58-.77a.63.63 0 00-.64.68v1.73h-.63V4h.63v1.72a1 1 0 01.88-.47c.61 0 1 .47 1 1.22zM67 5.79h-.7v1.39c0 .36.12.54.37.54a1.84 1.84 0 00.28 0v.48a1.34 1.34 0 01-.49.07c-.51 0-.81-.28-.81-1V5.79h-.42v-.48h.42v-.53l.63-.19v.72H67zm-4.31 2.39h-.64V6.53c0-.51-.2-.76-.58-.76a.66.66 0 00-.64.7v1.71h-.64V5.36h.56v.44a1 1 0 01.91-.5c.6 0 1 .46 1 1.21zm-4.85-2.46c-.46 0-.75.43-.75 1s.3 1 .75 1 .75-.46.75-1-.3-1-.75-1m0 2.53a1.37 1.37 0 01-1.38-1.48 1.4 1.4 0 011.43-1.52 1.35 1.35 0 011.38 1.47 1.41 1.41 0 01-1.43 1.53m-4.71-1.76a.69.69 0 00-.67-.74c-.48 0-.77.42-.77 1s.3 1 .75 1a.72.72 0 00.69-.75zm.09 1.69v-.46a1 1 0 01-.93.53 1.31 1.31 0 01-1.2-1.47 1.36 1.36 0 011.26-1.53.86.86 0 01.81.39V4h.65v4.19zM49.5 6.75c-.71 0-1.06.17-1.06.58a.4.4 0 00.43.45.61.61 0 00.63-.59zm.09 1.43l-.05-.33a1 1 0 01-.84.4.83.83 0 01-.88-.85c0-.71.61-1.07 1.67-1.07v-.06c0-.37-.2-.56-.59-.56a1.34 1.34 0 00-.75.21L48 5.5a1.76 1.76 0 011-.25c.75 0 1.13.4 1.13 1.19V7.5a5.63 5.63 0 000 .68zm-3.93-2.46c-.46 0-.75.43-.75 1s.3 1 .75 1 .75-.46.75-1-.3-1-.75-1m0 2.53a1.37 1.37 0 01-1.38-1.48 1.4 1.4 0 011.43-1.52 1.35 1.35 0 011.38 1.47 1.41 1.41 0 01-1.43 1.53m-2.33-.07h-.64V4h.64zm-1.76 0h-.64V6.53c0-.51-.19-.76-.58-.76a.66.66 0 00-.63.7v1.71h-.64V5.36h.57v.44a1 1 0 01.91-.5c.61 0 1 .46 1 1.21zm-3.33-2.87l-.9 2.87h-.58l-.37-1.25c-.09-.3-.17-.61-.23-.92a6 6 0 01-.25.92l-.39 1.25h-.59l-.85-2.87h.66l.32 1.37c.08.32.14.63.2.92a6.94 6.94 0 01.25-.92l.4-1.37h.52l.39 1.34c.1.33.18.65.24.95a7.72 7.72 0 01.2-.95l.35-1.34zm-6.19.41c-.46 0-.76.43-.76 1s.3 1 .75 1 .75-.46.75-1-.29-1-.74-1m0 2.53a1.37 1.37 0 01-1.39-1.48 1.4 1.4 0 011.43-1.52 1.36 1.36 0 011.39 1.47A1.41 1.41 0 0132 8.25m-4.24-3.58a2.51 2.51 0 00-.51 0v3h.43a1.41 1.41 0 001.53-1.6 1.3 1.3 0 00-1.45-1.44m-.21 3.55a8.2 8.2 0 01-.94-.05V4.25a6.79 6.79 0 011.1-.08c1.49 0 2.18.73 2.18 1.93 0 1.37-.81 2.12-2.34 2.12"/></g></g></svg>