<svg xmlns="http://www.w3.org/2000/svg" xmlns:xlink="http://www.w3.org/1999/xlink" viewBox="0 0 83.68 25.82"><defs><linearGradient id="Безымянный_градиент_8" x1="-466.79" y1="214.4" x2="-465.79" y2="214.4" gradientTransform="matrix(-14.45 0 0 14.45 -6729.16 -3086.51)" gradientUnits="userSpaceOnUse"><stop offset="0" stop-color="#4b98d2"/><stop offset=".01" stop-color="#4999d4"/><stop offset=".26" stop-color="#42b9eb"/><stop offset=".51" stop-color="#41c7f1"/><stop offset=".69" stop-color="#51c8ec"/><stop offset=".76" stop-color="#58c9ea"/><stop offset="1" stop-color="#5ccae8"/></linearGradient><linearGradient id="Безымянный_градиент_2" x1="-459.3" y1="206.63" x2="-458.3" y2="206.63" gradientTransform="matrix(-14.73 0 0 14.73 -6745.23 -3031.6)" gradientUnits="userSpaceOnUse"><stop offset="0" stop-color="#fee000"/><stop offset=".41" stop-color="#febc11"/><stop offset=".78" stop-color="#faa41a"/><stop offset="1" stop-color="#f99d1c"/></linearGradient><linearGradient id="Безымянный_градиент_3" x1="-463.27" y1="215.75" x2="-462.27" y2="215.75" gradientTransform="matrix(-19.6 0 0 19.6 -9063.71 -4212.25)" gradientUnits="userSpaceOnUse"><stop offset="0" stop-color="#ef4149"/><stop offset="1" stop-color="#c31e64"/></linearGradient><linearGradient id="Безымянный_градиент_4" x1="-461.46" y1="241.31" x2="-460.46" y2="241.31" gradientTransform="matrix(0 8.75 8.75 0 -2100.36 4036.06)" gradientUnits="userSpaceOnUse"><stop offset="0" stop-color="#34a173"/><stop offset=".07" stop-color="#31a871"/><stop offset=".48" stop-color="#4cba70"/><stop offset=".72" stop-color="#5abc6d"/><stop offset=".8" stop-color="#60bd6c"/><stop offset="1" stop-color="#67be6a"/></linearGradient><linearGradient id="Безымянный_градиент_5" x1="-494.05" y1="200.58" x2="-493.05" y2="200.58" gradientTransform="matrix(-4.76 0 0 4.76 -2343.71 -935.96)" gradientUnits="userSpaceOnUse"><stop offset="0" stop-color="#5d8db7"/><stop offset=".01" stop-color="#5f8db7"/><stop offset=".26" stop-color="#5fa5c8"/><stop offset=".51" stop-color="#5faecb"/><stop offset=".76" stop-color="#69afc6"/><stop offset="1" stop-color="#6cb0c5"/></linearGradient><linearGradient id="Безымянный_градиент_6" x1="-463.27" y1="215.79" x2="-462.27" y2="215.79" gradientTransform="matrix(-19.6 0 0 19.6 -9062.82 -4211.82)" gradientUnits="userSpaceOnUse"><stop offset="0" stop-color="#c85953"/><stop offset="1" stop-color="#aa4665"/></linearGradient><linearGradient id="Безымянный_градиент_7" x1="-466.79" y1="214.57" x2="-465.79" y2="214.57" gradientTransform="matrix(-14.45 0 0 14.45 -6725.19 -3081.85)" gradientUnits="userSpaceOnUse"><stop offset="0" stop-color="#5891c2"/><stop offset=".01" stop-color="#5891c2"/><stop offset=".26" stop-color="#59add5"/><stop offset=".49" stop-color="#5ab6d9"/><stop offset=".51" stop-color="#5ab7d9"/><stop offset=".76" stop-color="#65b9d4"/><stop offset="1" stop-color="#69bad2"/></linearGradient><linearGradient id="Безымянный_градиент_10" x1="-463.27" y1="215.88" x2="-462.27" y2="215.88" gradientTransform="matrix(-19.6 0 0 19.6 -9062.7 -4210.97)" gradientUnits="userSpaceOnUse"><stop offset="0" stop-color="#d6534f"/><stop offset="1" stop-color="#b33b65"/></linearGradient><linearGradient id="Безымянный_градиент_9" x1="-459.3" y1="206.72" x2="-458.3" y2="206.72" gradientTransform="matrix(-14.73 0 0 14.73 -6745.23 -3031.54)" gradientUnits="userSpaceOnUse"><stop offset="0" stop-color="#e1c936"/><stop offset=".41" stop-color="#e2af33"/><stop offset=".78" stop-color="#df9b33"/><stop offset="1" stop-color="#de9532"/></linearGradient><linearGradient id="Безымянный_градиент_10-2" x1="-469.3" y1="212.46" x2="-468.3" y2="212.46" gradientTransform="matrix(-12.17 0 0 12.17 -5695.29 -2570.26)" xlink:href="#Безымянный_градиент_10"/><linearGradient id="Безымянный_градиент_11" x1="-459.3" y1="206.72" x2="-458.3" y2="206.72" gradientTransform="matrix(-14.73 0 0 14.73 -6745.23 -3034.11)" gradientUnits="userSpaceOnUse"><stop offset="0" stop-color="#fde662"/><stop offset=".41" stop-color="#ffcb5b"/><stop offset=".78" stop-color="#fcb858"/><stop offset="1" stop-color="#fbb257"/></linearGradient><linearGradient id="Безымянный_градиент_12" x1="-461.46" y1="241.4" x2="-460.46" y2="241.4" gradientTransform="matrix(0 8.75 8.75 0 -2101.17 4035.69)" gradientUnits="userSpaceOnUse"><stop offset="0" stop-color="#6fb18f"/><stop offset=".07" stop-color="#70b890"/><stop offset=".48" stop-color="#7ec791"/><stop offset=".8" stop-color="#8acb8d"/><stop offset="1" stop-color="#90cc8d"/></linearGradient><clipPath id="clip-path" transform="translate(1.47 .73)"><path class="cls-1" d="M6.07 5.64v13.18a1.27 1.27 0 00.28.86h.05l7.54-7.54-7.54-7.5a1.15 1.15 0 00-.33.9"/></clipPath><clipPath id="clip-path-2" transform="translate(1.47 .73)"><path class="cls-1" d="M13.94 12.18l2.52 2.52 3-1.73a1.13 1.13 0 00.64-.79 1.06 1.06 0 01-.64.88 1 1 0 00.63-1 .41.41 0 010 .11 1.13 1.13 0 00-.64-.79l-3-1.73z"/></clipPath><clipPath id="clip-path-3" transform="translate(1.47 .73)"><path class="cls-1" d="M6.98 20.07a.94.94 0 01-.3-.05.94.94 0 00.3.05 1.38 1.38 0 00.68-.2 1.38 1.38 0 01-.68.2m-.59-.24zm.05-.05a.78.78 0 00.54.2 1.38 1.38 0 00.68-.2l8.84-5-2.52-2.52z"/></clipPath><clipPath id="clip-path-4" transform="translate(1.47 .73)"><path class="cls-1" d="M6.4 4.64l7.54 7.54 2.52-2.52-8.84-5a1.4 1.4 0 00-.68-.2.78.78 0 00-.54.2m.49-.27zm0 0a1.38 1.38 0 01.68.2 1.38 1.38 0 00-.68-.2z"/></clipPath><clipPath id="clip-path-5" transform="translate(1.47 .73)"/><clipPath id="clip-path-6" transform="translate(1.47 .73)"><path class="cls-1" d="M7.62 19.72a1.38 1.38 0 01-.68.2.78.78 0 01-.54-.2l-.05.05a.59.59 0 00.19.13.94.94 0 00.3.05 1.38 1.38 0 00.68-.2l8.89-5.06-.05-.05z"/></clipPath><clipPath id="clip-path-7" transform="translate(1.47 .73)"><path class="cls-1" d="M6.07 18.91a1.27 1.27 0 00.28.86l.05-.05h-.05a1.27 1.27 0 01-.28-.86z"/></clipPath><clipPath id="clip-path-8" transform="translate(1.47 .73)"><path class="cls-1" d="M6.35 19.77l.05-.05-.05.05z"/></clipPath><clipPath id="clip-path-9" transform="translate(1.47 .73)"><path class="cls-1" d="M19.49 13l-3 1.73.05.05 3-1.69a1.06 1.06 0 00.64-.88 1.13 1.13 0 01-.64.79"/></clipPath><clipPath id="clip-path-10" transform="translate(1.47 .73)"><path class="cls-1" d="M16.46 14.7l.06.05-.06-.05z"/></clipPath><clipPath id="clip-path-11" transform="translate(1.47 .73)"><path class="cls-1" d="M16.46 9.66l3 1.73a1.13 1.13 0 01.64.79.41.41 0 000-.11 1.12 1.12 0 00-.63-.77l-3-1.69z"/></clipPath><clipPath id="clip-path-12" transform="translate(1.47 .73)"><path class="cls-1" d="M6.8 4.36a.76.76 0 00-.4.22h.05a.78.78 0 01.54-.2 1.4 1.4 0 01.68.2l8.84 5 .05-.05-8.94-4.98a1.38 1.38 0 00-.68-.2H6.8"/></clipPath><style>.cls-1,.cls-5{fill:none}.cls-2{fill:#231f20}.cls-4{fill:#fff}.cls-5{stroke:#fff;stroke-miterlimit:10;stroke-width:.08px}</style></defs><g id="Слой_2" data-name="Слой 2"><g id="Слой_1-2" data-name="Слой 1"><path class="cls-2" d="M79.16 24.36H3a3.05 3.05 0 01-3-3.05V3.05A3.05 3.05 0 013 0h76.16a3.05 3.05 0 013 3.05v18.26a3.05 3.05 0 01-3 3.05" transform="translate(1.47 .73)"/><path d="M79.16 0H3a3.05 3.05 0 00-3 3.05v18.26a3.05 3.05 0 003 3.05h76.16a3.05 3.05 0 003-3.05V3.05a3.05 3.05 0 00-3-3m0 .49a2.56 2.56 0 012.56 2.56v18.21a2.56 2.56 0 01-2.56 2.56H3a2.56 2.56 0 01-2.51-2.56V3.05A2.55 2.55 0 013 .49z" transform="translate(1.47 .73)" fill="#a6a6a6"/><path class="cls-4" d="M28.87 6.24a1.67 1.67 0 01-.45 1.22 1.76 1.76 0 01-1.34.54 1.87 1.87 0 01-1.35-.55 1.84 1.84 0 01-.55-1.36 1.88 1.88 0 011.9-1.91 1.93 1.93 0 01.75.15 1.55 1.55 0 01.57.41l-.32.32a1.23 1.23 0 00-1-.43 1.35 1.35 0 00-1 .41 1.39 1.39 0 00-.42 1 1.44 1.44 0 002.44 1 1.14 1.14 0 00.3-.74h-1.32V6h1.77z" transform="translate(1.47 .73)"/><path class="cls-5" d="M28.89 6.24a1.66 1.66 0 01-.45 1.23 1.78 1.78 0 01-1.36.53 1.9 1.9 0 01-1.36-.55 1.86 1.86 0 01-.56-1.38 1.9 1.9 0 011.92-1.93 2 2 0 01.76.15 1.57 1.57 0 01.57.42l-.32.32a1.25 1.25 0 00-1-.44 1.41 1.41 0 00-1 .41 1.45 1.45 0 00-.43 1.07 1.41 1.41 0 00.43 1.06 1.45 1.45 0 002 0 1.17 1.17 0 00.31-.75h-1.32V6h1.79z" transform="translate(1.47 .73)"/><path class="cls-4" d="M33.15 5.44h-1.66V6.6h1.5v.44h-1.5V8.2h1.66v.45h-2.13V5h2.13v.44z"/><path class="cls-5" d="M33.17 5.43h-1.69V6.6h1.53v.44h-1.53v1.18h1.69v.45H31v-3.7h2.17v.46z"/><path class="cls-4" d="M35.13 8.65h-.47V5.44h-1.02V5h2.51v.44h-1.02v3.21z"/><path class="cls-5" d="M35.14 8.67h-.48V5.43h-1.04v-.46h2.55v.46h-1.03v3.24z"/><path class="cls-4" d="M37.97 4.99h.47v3.66h-.47z"/><path class="cls-5" d="M37.95 4.97h.51v3.7h-.51z"/><path class="cls-4" d="M40.52 8.65h-.47V5.44h-1.02V5h2.51v.44h-1.02v3.21z"/><path class="cls-5" d="M40.52 8.67h-.47V5.43h-1.04v-.46h2.55v.46h-1.04v3.24z"/><path class="cls-4" d="M42.49 7.14a1.35 1.35 0 001 .41 1.34 1.34 0 001-.41 1.39 1.39 0 00.41-1 1.4 1.4 0 00-.41-1 1.34 1.34 0 00-1-.41 1.35 1.35 0 00-1 .41 1.44 1.44 0 00-.41 1 1.42 1.42 0 00.41 1m2.33.3a1.88 1.88 0 01-2.68 0 1.88 1.88 0 01-.53-1.35 1.88 1.88 0 01.53-1.35 1.88 1.88 0 012.68 0 1.86 1.86 0 01.54 1.35 1.85 1.85 0 01-.54 1.35" transform="translate(1.47 .73)"/><path class="cls-5" d="M42.48 7.15a1.34 1.34 0 001 .42 1.37 1.37 0 001-.42 1.46 1.46 0 00.41-1.06 1.46 1.46 0 00-.4-1.09 1.37 1.37 0 00-1-.42 1.34 1.34 0 00-1 .42 1.46 1.46 0 00-.41 1.06 1.46 1.46 0 00.4 1.09zm2.36.31a1.83 1.83 0 01-1.36.54 1.81 1.81 0 01-1.35-.56 1.9 1.9 0 01-.55-1.37 1.9 1.9 0 01.55-1.37 1.81 1.81 0 011.35-.56 1.85 1.85 0 011.36.56 1.91 1.91 0 01.54 1.37 1.89 1.89 0 01-.54 1.39z" transform="translate(1.47 .73)"/><path class="cls-4" d="M47.49 8.65V5h.57l1.78 2.84h.02l-.02-.71V5h.47v3.65h-.49l-1.86-2.98h-.02l.02.7v2.28h-.47z"/><path class="cls-5" d="M47.47 8.67v-3.7h.58l1.8 2.88h.02l-.02-.71V4.97h.48v3.7h-.5l-1.88-3.01h-.03l.03.71v2.3h-.48z"/><path class="cls-4" d="M65.12 18.27h1.13v-7.61h-1.13zm10.23-4.87l-1.3 3.3-1.35-3.3h-1.27l2 4.61-1.13 2.57h1.19l3.12-7.18zm-6.44 4c-.38 0-.9-.18-.9-.64s.65-.82 1.21-.82a2 2 0 011 .26 1.38 1.38 0 01-1.35 1.2m.13-4.17a2.12 2.12 0 00-2 1.17l1 .42a1.06 1.06 0 011-.56 1.1 1.1 0 011.2 1v.08a2.51 2.51 0 00-1.19-.3c-1.08 0-2.19.6-2.19 1.72a1.75 1.75 0 001.89 1.67 1.62 1.62 0 001.45-.74v.59h1.09v-2.94A2.09 2.09 0 0069 13.23m-7 1.1h-1.59v-2.62H62a1.31 1.31 0 110 2.62m0-3.67h-2.73v7.61h1.14v-2.89H62a2.36 2.36 0 100-4.72m-14.85 6.75a1.57 1.57 0 010-3.14 1.46 1.46 0 011.38 1.58 1.45 1.45 0 01-1.38 1.56m1.3-3.59a1.79 1.79 0 00-1.36-.58 2.6 2.6 0 000 5.19 1.76 1.76 0 001.36-.59v.37c0 1-.53 1.52-1.38 1.52a1.44 1.44 0 01-1.31-.92l-1 .41a2.47 2.47 0 002.3 1.53 2.37 2.37 0 002.46-2.7V13.4h-1.07zm1.86 4.45h1.14v-7.61h-1.14zm2.82-2.51a1.42 1.42 0 011.35-1.51 1 1 0 011 .54zm3.53-.87a2.39 2.39 0 00-2.21-1.65 2.47 2.47 0 00-2.45 2.6 2.54 2.54 0 002.57 2.59 2.57 2.57 0 002.16-1.15l-.88-.59a1.5 1.5 0 01-1.28.72 1.31 1.31 0 01-1.25-.79l3.46-1.43zM29.07 14v1.1h2.63a2.24 2.24 0 01-.6 1.38 2.66 2.66 0 01-2 .81 2.93 2.93 0 010-5.85 2.79 2.79 0 012 .78l.78-.77a3.83 3.83 0 00-2.76-1.11 4 4 0 100 8 3.71 3.71 0 002.81-1.13 3.67 3.67 0 00.95-2.57 3.54 3.54 0 00-.06-.69zm6.75 3.37a1.5 1.5 0 01-1.46-1.57 1.46 1.46 0 112.92 0 1.5 1.5 0 01-1.46 1.57m0-4.16a2.59 2.59 0 102.6 2.59 2.55 2.55 0 00-2.6-2.59m5.67 4.16A1.5 1.5 0 0140 15.84a1.46 1.46 0 112.92 0 1.5 1.5 0 01-1.46 1.57m0-4.17a2.6 2.6 0 102.6 2.6 2.56 2.56 0 00-2.6-2.6" transform="translate(1.47 .73)"/><g clip-path="url(#clip-path)"><path transform="rotate(-45 11.632 10.772)" fill="url(#Безымянный_градиент_8)" d="M1.89 4.06h16.24V20.3H1.89z"/></g><g clip-path="url(#clip-path-2)"><path fill="url(#Безымянный_градиент_2)" d="M15.42 10.4h6.24v5.03h-6.24z"/></g><g clip-path="url(#clip-path-3)"><path transform="rotate(-45 13.023 14.686)" fill="url(#Безымянный_градиент_3)" d="M5.07 9.76h12.68v12.68H5.07z"/></g><g clip-path="url(#clip-path-4)"><path transform="rotate(-45 13.046 6.846)" fill="url(#Безымянный_градиент_4)" d="M5.1 1.94h12.65v12.65H5.1z"/></g><path class="cls-2" d="M6.64 20a.8.8 0 01-.19-.13.59.59 0 00.19.13" transform="translate(1.47 .73)"/><g clip-path="url(#clip-path-5)"><path transform="rotate(-45.01 8.017 18.395)" fill="url(#Безымянный_градиент_5)" d="M6.39 19.8h.02v.02h-.02z"/></g><g clip-path="url(#clip-path-6)"><path transform="rotate(-45 13.054 15.943)" fill="url(#Безымянный_градиент_6)" d="M5.96 11.88H16.9v10.94H5.96z"/></g><g clip-path="url(#clip-path-7)"><path transform="rotate(-45 7.85 17.889)" fill="url(#Безымянный_градиент_7)" d="M5.79 18.85h.9v.9h-.9z"/></g><g clip-path="url(#clip-path-8)"><path transform="rotate(-45 7.992 18.33)" fill="url(#Безымянный_градиент_10)" d="M6.35 19.71h.06v.06h-.06z"/></g><path class="cls-2" d="M16.52 14.75l3-1.69z" transform="translate(1.47 .73)"/><g clip-path="url(#clip-path-9)"><path fill="url(#Безымянный_градиент_9)" d="M17.93 12.91h3.67v2.57h-3.67z"/></g><g clip-path="url(#clip-path-10)"><path transform="rotate(-44.99 18.109 13.312)" fill="url(#Безымянный_градиент_10-2)" d="M16.45 14.68h.08v.08h-.08z"/></g><path d="M20.12 12.07a1.13 1.13 0 00-.62-.77 1.13 1.13 0 01.62.77m-.62-.77L7.62 4.55l8.9 5.06zM6.07 5.45a1.15 1.15 0 01.27-.72.76.76 0 01.4-.22.92.92 0 00-.67.94m.67-.94" transform="translate(1.47 .73)" fill="#636466"/><g clip-path="url(#clip-path-11)"><path fill="url(#Безымянный_градиент_11)" d="M17.93 10.34h3.67v2.57h-3.67z"/></g><g clip-path="url(#clip-path-12)"><path transform="rotate(-45 13.056 5.592)" fill="url(#Безымянный_градиент_12)" d="M5.96 1.53H16.9v10.94H5.96z"/></g></g></g></svg>