<svg version="1.1" id="Слой_1" xmlns="http://www.w3.org/2000/svg" x="0" y="0" viewBox="0 0 512 512" xml:space="preserve"><style>.st1{fill:#fff}</style><linearGradient id="SVGID_1_" gradientUnits="userSpaceOnUse" x1="256" y1="-.11" x2="256" y2="511.89" gradientTransform="matrix(1 0 0 -1 0 511.89)"><stop offset=".108" stop-color="#d5d3ff"/><stop offset=".239" stop-color="#cdd0ff"/><stop offset=".437" stop-color="#b8c9ff"/><stop offset=".679" stop-color="#96bdff"/><stop offset=".952" stop-color="#67acff"/><stop offset="1" stop-color="#5ea9ff"/></linearGradient><path d="M512 0H0v512h512V0z" fill="url(#SVGID_1_)"/><path class="st1" d="M418.1 208.3c0-6.1-2.7-11.8-7.5-15.6L268.5 78.4c-7.3-5.9-17.8-5.9-25.1 0L101.3 192.7c-4.7 3.8-7.5 9.5-7.5 15.6v189.8c0 11 9 20 20 20h284.3c11 0 20-9 20-20V208.3z"/><path class="st1" d="M434.9 237.4c-2.4 0-4.9-.8-6.9-2.4L254 95c-4.7-3.8-5.5-10.7-1.7-15.5 3.8-4.7 10.7-5.5 15.5-1.7l174 139.9c4.7 3.8 5.5 10.7 1.7 15.5-2.2 2.8-5.4 4.2-8.6 4.2z"/><path class="st1" d="M250.7 75.4c-2.4 0-4.9.8-6.9 2.4l-174 139.9c-4.7 3.8-5.5 10.7-1.7 15.5 3.8 4.7 10.7 5.5 15.5 1.7L257.6 95c4.7-3.8 5.5-10.7 1.7-15.5-2.2-2.7-5.4-4.1-8.6-4.1z"/><path d="M306.6 215.9c10.8 0 20.7 1.9 30.3 5.7 9.6 4.1 17.6 9.3 24.6 16.1 7 6.8 12.5 14.8 16.5 24 4.1 9.1 5.9 19.1 5.9 29.5 0 10.4-1.9 20.4-5.9 29.5-4.1 9.1-9.6 17.1-16.5 24-7 6.8-15 12.1-24.6 15.8-9.6 4.1-19.5 5.9-30.3 5.9h-57.7V215.9h57.7zm19.1 118.5c5.7-2.3 10.6-5.7 14.7-10 4.1-4.2 7-9.3 9.3-15 2.3-5.7 3.4-11.7 3.4-18.2s-1-12.7-3.4-18.4c-2.3-5.7-5.2-10.6-9.3-14.8-4.1-4.2-8.9-7.7-14.7-10.1-5.7-2.3-12.1-3.6-19.1-3.6h-26.9v94.2h26.9c7-.3 13.4-1.5 19.1-4.1zM174 213.3c-25.4 0-46 20.6-46 46s20.6 46 46 46 46-20.6 46-46c-.1-25.3-20.6-46-46-46zm0 64.9c-10.5 0-18.9-8.5-18.9-18.9 0-10.5 8.5-18.9 18.9-18.9 10.5 0 18.9 8.5 18.9 18.9 0 10.4-8.5 18.9-18.9 18.9z" fill="#231f20"/></svg>