<svg xmlns="http://www.w3.org/2000/svg" xmlns:xlink="http://www.w3.org/1999/xlink"><symbol id="daikin-logo" viewBox="0 0 170 37">
<path d="M39.0277 0.572693H0.567871V36.4275L39.0277 0.572693Z" fill="#44C8F5"/>
<path d="M19.7942 0.572727H0.566895V18.5084L19.7942 0.572727Z" fill="#231F20"/>
<path d="M92.7328 8.35509L87.7124 28.6379H96.5826L101.599 8.35509H92.7328Z" fill="#00A0E4"/>
<path d="M72.4744 20.1105H70.4401L73.72 14.2592L74.7838 20.1105H72.4744ZM71.2123 8.35296L59.8047 28.6348H65.6713L67.5648 25.2541H75.7091L76.3159 28.6348H84.9746L81.2943 8.35296H71.2123Z" fill="#00A0E4"/>
<path d="M133.241 8.35509L128.234 28.6379H137.102L142.11 8.35509H133.241Z" fill="#00A0E4"/>
<path d="M129.277 8.35509H120.188L112.58 14.9898L114.241 8.35509H105.739L100.732 28.6379H109.207L110.938 21.6359L115.47 28.6379H125.728L118.13 18.0156L129.277 8.35509Z" fill="#00A0E4"/>
<path d="M52.8446 17.5725C52.8446 17.5725 52.2685 24.1605 46.713 24.1605H43.5698L46.3382 13.2206H49.1909C50.2116 13.2268 53.166 13.4945 52.8446 17.5725ZM52.3948 8.36443L50.1007 8.35717H39.0022L33.9951 28.6317H45.0156L49.3757 28.6379C55.5144 28.6379 61.5556 24.0204 61.5556 16.9478C61.5556 8.62591 52.3948 8.36443 52.3948 8.36443Z" fill="#00A0E4"/>
<path d="M163.294 8.35198L160.336 20.2953L156.394 8.35198H146.53L141.519 28.6379H147.653L150.64 16.5898L154.593 28.6379H164.415L169.434 8.35198H163.294Z" fill="#00A0E4"/>
</symbol><symbol id="logo-daichi-color" viewBox="0 0 569.000000 103.000000" preserveAspectRatio="xMidYMid meet">

<g transform="translate(0.000000,103.000000) scale(0.100000,-0.100000)" fill="#000000" stroke="none">
<path d="M162 999 c-109 -54 -162 -143 -162 -274 0 -94 25 -160 84 -218 56
-57 110 -80 197 -85 109 -6 168 15 240 87 65 65 89 124 89 216 0 84 -23 145
-78 206 -65 73 -125 99 -228 99 -70 0 -89 -4 -142 -31z m231 -199 c31 -35 36
-84 12 -130 -21 -41 -53 -60 -101 -60 -81 0 -140 82 -111 152 38 89 136 108
200 38z"/>
<path d="M3598 1011 c-82 -26 -135 -61 -199 -127 -65 -69 -103 -143 -124 -239
-42 -198 10 -389 139 -513 109 -105 199 -136 375 -130 105 4 123 7 184 35 76
36 166 116 204 181 25 42 63 150 63 178 0 11 -22 14 -107 14 l-108 0 -19 -47
c-44 -107 -124 -157 -251 -157 -89 0 -126 14 -183 68 -46 43 -70 92 -84 175
-27 156 33 295 152 357 45 24 179 25 231 2 57 -25 105 -74 130 -133 l24 -55
108 0 c122 0 117 -5 88 89 -26 83 -60 137 -123 198 -97 91 -186 123 -343 122
-68 0 -118 -6 -157 -18z"/>
<path d="M790 515 l0 -507 248 4 c225 4 253 6 312 27 213 74 343 254 343 476
0 219 -129 400 -338 476 -54 20 -84 23 -312 27 l-253 4 0 -507z m489 289 c74
-22 151 -98 181 -179 54 -145 -9 -313 -144 -383 -46 -24 -64 -27 -178 -30
l-128 -4 0 306 0 306 108 0 c69 0 127 -6 161 -16z"/>
<path d="M2061 998 c-43 -120 -331 -968 -331 -977 0 -8 30 -11 112 -9 l111 3
35 103 34 102 207 0 207 0 34 -105 34 -105 113 0 c62 0 113 2 113 4 0 5 -324
961 -335 989 -6 15 -24 17 -166 17 -156 0 -160 0 -168 -22z m247 -385 l70
-213 -150 0 c-116 0 -149 3 -145 13 2 6 35 105 73 219 38 114 71 204 75 200 4
-4 38 -103 77 -219z"/>
<path d="M2880 515 l0 -505 105 0 105 0 0 505 0 505 -105 0 -105 0 0 -505z"/>
<path d="M4400 515 l0 -505 110 0 110 0 0 210 0 210 215 0 215 0 0 -210 0
-210 110 0 110 0 0 505 0 505 -110 0 -110 0 0 -205 0 -205 -215 0 -215 0 0
205 0 205 -110 0 -110 0 0 -505z"/>
<path d="M5480 515 l0 -505 105 0 105 0 0 505 0 505 -105 0 -105 0 0 -505z"/>
</g>
</symbol></svg>