<svg xmlns="http://www.w3.org/2000/svg" xmlns:xlink="http://www.w3.org/1999/xlink"><defs><style>.cls-1{fill:#fff;}.cls-2{fill:#a6a6a6;}.cls-3{fill:#231f20;}</style><style>.a{fill:none;}.b{fill:#231f20;}.c{clip-path:url(#a);}.d{fill:url(#b);}</style><clipPath id="a"><rect class="a" width="119.671" height="9.734"/></clipPath><linearGradient id="b" x1="1" y1="0.5" x2="0.327" y2="0.5" gradientUnits="objectBoundingBox"><stop offset="0" stop-color="#71d6c8"/><stop offset="1" stop-color="#ffdecb"/></linearGradient><style>.cls-1,.cls-5{fill:none;}.cls-2{fill:#231f20;}.cls-3{fill:#a6a6a6;}.cls-4{fill:#fff;}.cls-5{stroke:#fff;stroke-miterlimit:10;stroke-width:0.08px;}.cls-6{clip-path:url(#clip-path);}.cls-7{fill:url(#Безымянный_градиент_8);}.cls-8{clip-path:url(#clip-path-2);}.cls-9{fill:url(#Безымянный_градиент_2);}.cls-10{clip-path:url(#clip-path-3);}.cls-11{fill:url(#Безымянный_градиент_3);}.cls-12{clip-path:url(#clip-path-4);}.cls-13{fill:url(#Безымянный_градиент_4);}.cls-14{clip-path:url(#clip-path-5);}.cls-15{fill:url(#Безымянный_градиент_5);}.cls-16{clip-path:url(#clip-path-6);}.cls-17{fill:url(#Безымянный_градиент_6);}.cls-18{clip-path:url(#clip-path-7);}.cls-19{fill:url(#Безымянный_градиент_7);}.cls-20{clip-path:url(#clip-path-8);}.cls-21{fill:url(#Безымянный_градиент_10);}.cls-22{clip-path:url(#clip-path-9);}.cls-23{fill:url(#Безымянный_градиент_9);}.cls-24{clip-path:url(#clip-path-10);}.cls-25{fill:url(#Безымянный_градиент_10-2);}.cls-26{fill:#636466;}.cls-27{clip-path:url(#clip-path-11);}.cls-28{fill:url(#Безымянный_градиент_11);}.cls-29{clip-path:url(#clip-path-12);}.cls-30{fill:url(#Безымянный_градиент_12);}</style><clipPath id="clip-path" transform="translate(1.47 0.73)"><path class="cls-1" d="M6.07,5.41h0m0,0h0m0,0h0m0,0h0m0,.23V18.82a1.27,1.27,0,0,0,.28.86l.05,0,7.54-7.54L6.4,4.64a1.15,1.15,0,0,0-.33.9"/></clipPath><linearGradient id="&#x411;&#x435;&#x437;&#x44B;&#x43C;&#x44F;&#x43D;&#x43D;&#x44B;&#x439;_&#x433;&#x440;&#x430;&#x434;&#x438;&#x435;&#x43D;&#x442;_8" x1="-466.79" y1="214.4" x2="-465.79" y2="214.4" gradientTransform="matrix(-14.45, 0, 0, 14.45, -6729.16, -3086.51)" gradientUnits="userSpaceOnUse"><stop offset="0" stop-color="#4b98d2"/><stop offset="0.01" stop-color="#4999d4"/><stop offset="0.26" stop-color="#42b9eb"/><stop offset="0.51" stop-color="#41c7f1"/><stop offset="0.69" stop-color="#51c8ec"/><stop offset="0.76" stop-color="#58c9ea"/><stop offset="1" stop-color="#5ccae8"/></linearGradient><clipPath id="clip-path-2" transform="translate(1.47 0.73)"><path class="cls-1" d="M13.94,12.18l2.52,2.52,3-1.73a1.13,1.13,0,0,0,.64-.79,1.06,1.06,0,0,1-.64.88,1,1,0,0,0,.63-1,.41.41,0,0,1,0,.11,1.13,1.13,0,0,0-.64-.79l-3-1.73Z"/></clipPath><linearGradient id="&#x411;&#x435;&#x437;&#x44B;&#x43C;&#x44F;&#x43D;&#x43D;&#x44B;&#x439;_&#x433;&#x440;&#x430;&#x434;&#x438;&#x435;&#x43D;&#x442;_2" x1="-459.3" y1="206.63" x2="-458.3" y2="206.63" gradientTransform="matrix(-14.73, 0, 0, 14.73, -6745.23, -3031.6)" gradientUnits="userSpaceOnUse"><stop offset="0" stop-color="#fee000"/><stop offset="0.41" stop-color="#febc11"/><stop offset="0.78" stop-color="#faa41a"/><stop offset="1" stop-color="#f99d1c"/></linearGradient><clipPath id="clip-path-3" transform="translate(1.47 0.73)"><path class="cls-1" d="M6.64,20h0m0,0h0m.34.07a.94.94,0,0,1-.3-.05.94.94,0,0,0,.3.05,1.38,1.38,0,0,0,.68-.2,1.38,1.38,0,0,1-.68.2m-.59-.24,0,0Zm.05-.05h0a.78.78,0,0,0,.54.2,1.38,1.38,0,0,0,.68-.2l8.84-5h0l-2.52-2.52Z"/></clipPath><linearGradient id="&#x411;&#x435;&#x437;&#x44B;&#x43C;&#x44F;&#x43D;&#x43D;&#x44B;&#x439;_&#x433;&#x440;&#x430;&#x434;&#x438;&#x435;&#x43D;&#x442;_3" x1="-463.27" y1="215.75" x2="-462.27" y2="215.75" gradientTransform="matrix(-19.6, 0, 0, 19.6, -9063.71, -4212.25)" gradientUnits="userSpaceOnUse"><stop offset="0" stop-color="#ef4149"/><stop offset="1" stop-color="#c31e64"/></linearGradient><clipPath id="clip-path-4" transform="translate(1.47 0.73)"><path class="cls-1" d="M6.4,4.64l7.54,7.54,2.52-2.52-8.84-5a1.4,1.4,0,0,0-.68-.2.78.78,0,0,0-.54.2m.35-.27h0m0,0h0m0,0h0m0,0h0m.14,0h0Zm0,0a1.38,1.38,0,0,1,.68.2,1.38,1.38,0,0,0-.68-.2Z"/></clipPath><linearGradient id="&#x411;&#x435;&#x437;&#x44B;&#x43C;&#x44F;&#x43D;&#x43D;&#x44B;&#x439;_&#x433;&#x440;&#x430;&#x434;&#x438;&#x435;&#x43D;&#x442;_4" x1="-461.46" y1="241.31" x2="-460.46" y2="241.31" gradientTransform="matrix(0, 8.75, 8.75, 0, -2100.36, 4036.06)" gradientUnits="userSpaceOnUse"><stop offset="0" stop-color="#34a173"/><stop offset="0.07" stop-color="#31a871"/><stop offset="0.48" stop-color="#4cba70"/><stop offset="0.72" stop-color="#5abc6d"/><stop offset="0.8" stop-color="#60bd6c"/><stop offset="1" stop-color="#67be6a"/></linearGradient><clipPath id="clip-path-5" transform="translate(1.47 0.73)"><path class="cls-1" d="M6.39,19.8h0Z"/></clipPath><linearGradient id="&#x411;&#x435;&#x437;&#x44B;&#x43C;&#x44F;&#x43D;&#x43D;&#x44B;&#x439;_&#x433;&#x440;&#x430;&#x434;&#x438;&#x435;&#x43D;&#x442;_5" x1="-494.05" y1="200.58" x2="-493.05" y2="200.58" gradientTransform="matrix(-4.76, 0, 0, 4.76, -2343.71, -935.96)" gradientUnits="userSpaceOnUse"><stop offset="0" stop-color="#5d8db7"/><stop offset="0.01" stop-color="#5f8db7"/><stop offset="0.26" stop-color="#5fa5c8"/><stop offset="0.51" stop-color="#5faecb"/><stop offset="0.76" stop-color="#69afc6"/><stop offset="1" stop-color="#6cb0c5"/></linearGradient><clipPath id="clip-path-6" transform="translate(1.47 0.73)"><path class="cls-1" d="M7.62,19.72a1.38,1.38,0,0,1-.68.2.78.78,0,0,1-.54-.2l-.05.05,0,0h0a.59.59,0,0,0,.19.13h0a.94.94,0,0,0,.3.05,1.38,1.38,0,0,0,.68-.2l8.89-5.06-.05-.05Z"/></clipPath><linearGradient id="&#x411;&#x435;&#x437;&#x44B;&#x43C;&#x44F;&#x43D;&#x43D;&#x44B;&#x439;_&#x433;&#x440;&#x430;&#x434;&#x438;&#x435;&#x43D;&#x442;_6" x1="-463.27" y1="215.79" x2="-462.27" y2="215.79" gradientTransform="matrix(-19.6, 0, 0, 19.6, -9062.82, -4211.82)" gradientUnits="userSpaceOnUse"><stop offset="0" stop-color="#c85953"/><stop offset="1" stop-color="#aa4665"/></linearGradient><clipPath id="clip-path-7" transform="translate(1.47 0.73)"><path class="cls-1" d="M6.07,18.91a1.27,1.27,0,0,0,.28.86l.05-.05-.05,0a1.27,1.27,0,0,1-.28-.86Z"/></clipPath><linearGradient id="&#x411;&#x435;&#x437;&#x44B;&#x43C;&#x44F;&#x43D;&#x43D;&#x44B;&#x439;_&#x433;&#x440;&#x430;&#x434;&#x438;&#x435;&#x43D;&#x442;_7" x1="-466.79" y1="214.57" x2="-465.79" y2="214.57" gradientTransform="matrix(-14.45, 0, 0, 14.45, -6725.19, -3081.85)" gradientUnits="userSpaceOnUse"><stop offset="0" stop-color="#5891c2"/><stop offset="0.01" stop-color="#5891c2"/><stop offset="0.26" stop-color="#59add5"/><stop offset="0.49" stop-color="#5ab6d9"/><stop offset="0.51" stop-color="#5ab7d9"/><stop offset="0.76" stop-color="#65b9d4"/><stop offset="1" stop-color="#69bad2"/></linearGradient><clipPath id="clip-path-8" transform="translate(1.47 0.73)"><polygon class="cls-1" points="6.35 19.77 6.4 19.72 6.4 19.72 6.35 19.77"/></clipPath><linearGradient id="&#x411;&#x435;&#x437;&#x44B;&#x43C;&#x44F;&#x43D;&#x43D;&#x44B;&#x439;_&#x433;&#x440;&#x430;&#x434;&#x438;&#x435;&#x43D;&#x442;_10" x1="-463.27" y1="215.88" x2="-462.27" y2="215.88" gradientTransform="matrix(-19.6, 0, 0, 19.6, -9062.7, -4210.97)" gradientUnits="userSpaceOnUse"><stop offset="0" stop-color="#d6534f"/><stop offset="1" stop-color="#b33b65"/></linearGradient><clipPath id="clip-path-9" transform="translate(1.47 0.73)"><path class="cls-1" d="M19.49,13l-3,1.73.05.05,3-1.69a1.06,1.06,0,0,0,.64-.88,1.13,1.13,0,0,1-.64.79"/></clipPath><linearGradient id="&#x411;&#x435;&#x437;&#x44B;&#x43C;&#x44F;&#x43D;&#x43D;&#x44B;&#x439;_&#x433;&#x440;&#x430;&#x434;&#x438;&#x435;&#x43D;&#x442;_9" x1="-459.3" y1="206.72" x2="-458.3" y2="206.72" gradientTransform="matrix(-14.73, 0, 0, 14.73, -6745.23, -3031.54)" gradientUnits="userSpaceOnUse"><stop offset="0" stop-color="#e1c936"/><stop offset="0.41" stop-color="#e2af33"/><stop offset="0.78" stop-color="#df9b33"/><stop offset="1" stop-color="#de9532"/></linearGradient><clipPath id="clip-path-10" transform="translate(1.47 0.73)"><polygon class="cls-1" points="16.46 14.7 16.52 14.75 16.46 14.7 16.46 14.7"/></clipPath><linearGradient id="&#x411;&#x435;&#x437;&#x44B;&#x43C;&#x44F;&#x43D;&#x43D;&#x44B;&#x439;_&#x433;&#x440;&#x430;&#x434;&#x438;&#x435;&#x43D;&#x442;_10-2" x1="-469.3" y1="212.46" x2="-468.3" y2="212.46" gradientTransform="matrix(-12.17, 0, 0, 12.17, -5695.29, -2570.26)" xlink:href="#&#x411;&#x435;&#x437;&#x44B;&#x43C;&#x44F;&#x43D;&#x43D;&#x44B;&#x439;_&#x433;&#x440;&#x430;&#x434;&#x438;&#x435;&#x43D;&#x442;_10"/><clipPath id="clip-path-11" transform="translate(1.47 0.73)"><path class="cls-1" d="M16.46,9.66l3,1.73a1.13,1.13,0,0,1,.64.79.41.41,0,0,0,0-.11,1.12,1.12,0,0,0-.63-.77l-3-1.69Z"/></clipPath><linearGradient id="&#x411;&#x435;&#x437;&#x44B;&#x43C;&#x44F;&#x43D;&#x43D;&#x44B;&#x439;_&#x433;&#x440;&#x430;&#x434;&#x438;&#x435;&#x43D;&#x442;_11" x1="-459.3" y1="206.72" x2="-458.3" y2="206.72" gradientTransform="matrix(-14.73, 0, 0, 14.73, -6745.23, -3034.11)" gradientUnits="userSpaceOnUse"><stop offset="0" stop-color="#fde662"/><stop offset="0.41" stop-color="#ffcb5b"/><stop offset="0.78" stop-color="#fcb858"/><stop offset="1" stop-color="#fbb257"/></linearGradient><clipPath id="clip-path-12" transform="translate(1.47 0.73)"><path class="cls-1" d="M6.8,4.36h0a.76.76,0,0,0-.4.22l.05,0a.78.78,0,0,1,.54-.2,1.4,1.4,0,0,1,.68.2l8.84,5,.05-.05L7.62,4.55a1.38,1.38,0,0,0-.68-.2H6.8"/></clipPath><linearGradient id="&#x411;&#x435;&#x437;&#x44B;&#x43C;&#x44F;&#x43D;&#x43D;&#x44B;&#x439;_&#x433;&#x440;&#x430;&#x434;&#x438;&#x435;&#x43D;&#x442;_12" x1="-461.46" y1="241.4" x2="-460.46" y2="241.4" gradientTransform="matrix(0, 8.75, 8.75, 0, -2101.17, 4035.69)" gradientUnits="userSpaceOnUse"><stop offset="0" stop-color="#6fb18f"/><stop offset="0.07" stop-color="#70b890"/><stop offset="0.48" stop-color="#7ec791"/><stop offset="0.8" stop-color="#8acb8d"/><stop offset="1" stop-color="#90cc8d"/></linearGradient><style>.a{fill:none;}.b{fill:#231f20;}.c{clip-path:url(#a);}.d{fill:url(#b);}</style><clipPath id="a"><rect class="a" width="180.043" height="9.734"/></clipPath><linearGradient id="b" x1="1" y1="0.5" x2="0.358" y2="0.5" gradientUnits="objectBoundingBox"><stop offset="0" stop-color="#7bbaff"/><stop offset="1" stop-color="#ceeede"/></linearGradient></defs><symbol id="apple" viewBox="0 0 82.2 24.36"><g id="&#x421;&#x43B;&#x43E;&#x439;_2" data-name="&#x421;&#x43B;&#x43E;&#x439; 2"><g id="&#x421;&#x43B;&#x43E;&#x439;_1-2" data-name="&#x421;&#x43B;&#x43E;&#x439; 1"><path class="cls-1" d="M81.66,21.48a2.33,2.33,0,0,1-2.33,2.33H2.88A2.33,2.33,0,0,1,.54,21.48V2.88A2.35,2.35,0,0,1,2.88.54H79.32a2.34,2.34,0,0,1,2.34,2.34Z"/><path class="cls-2" d="M79.32,24.36H2.88A2.88,2.88,0,0,1,0,21.48V2.88A2.88,2.88,0,0,1,2.88,0H79.32A2.88,2.88,0,0,1,82.2,2.88v18.6a2.87,2.87,0,0,1-2.88,2.88"/><path class="cls-3" d="M81.66,21.48a2.33,2.33,0,0,1-2.33,2.33H2.88A2.33,2.33,0,0,1,.54,21.48V2.88A2.35,2.35,0,0,1,2.88.54H79.32a2.34,2.34,0,0,1,2.34,2.34Z"/><path class="cls-1" d="M16.41,6.28a3.43,3.43,0,0,0,.79-2.49A3.54,3.54,0,0,0,14.91,5a3.3,3.3,0,0,0-.81,2.4,2.92,2.92,0,0,0,2.31-1.09m1.95,5.77a3.5,3.5,0,0,1,1.68-3,3.61,3.61,0,0,0-2.85-1.54c-1.2-.13-2.36.72-3,.72s-1.56-.71-2.58-.69A3.8,3.8,0,0,0,8.45,9.53c-1.37,2.39-.36,5.9,1,7.83.66.95,1.44,2,2.45,2s1.36-.63,2.55-.63,1.53.63,2.57.61,1.72-1,2.37-1.9a8.47,8.47,0,0,0,1.08-2.21,3.43,3.43,0,0,1-2.08-3.14"/><path class="cls-1" d="M73.19,15.65a1.76,1.76,0,0,0-.26-1,1.13,1.13,0,0,0-1-.54,1.24,1.24,0,0,0-1,.53,1.92,1.92,0,0,0-.39,1Zm1.24.34a3.92,3.92,0,0,1-.05.59h-3.9a1.67,1.67,0,0,0,.57,1.32,1.87,1.87,0,0,0,1.27.41A4.23,4.23,0,0,0,73.9,18l.2.91a4.9,4.9,0,0,1-2,.36A2.82,2.82,0,0,1,70,18.5a2.94,2.94,0,0,1-.78-2.15,3.37,3.37,0,0,1,.72-2.2,2.52,2.52,0,0,1,2-.94,2.18,2.18,0,0,1,1.91.94A3.27,3.27,0,0,1,74.43,16m-5.81-1.5a2,2,0,0,0-.41,0,1.21,1.21,0,0,0-1.06.52,1.91,1.91,0,0,0-.33,1.15v3.07H65.53v-4c0-.61,0-1.22,0-1.84h1.13l0,1.12h0a1.94,1.94,0,0,1,.65-.92,1.53,1.53,0,0,1,.94-.32,1.69,1.69,0,0,1,.33,0Zm-5.57,1.76a2.62,2.62,0,0,0-.35-1.38,1.34,1.34,0,0,0-2.36,0,2.67,2.67,0,0,0-.35,1.4,2.62,2.62,0,0,0,.35,1.38,1.3,1.3,0,0,0,1.18.7,1.32,1.32,0,0,0,1.17-.71,2.71,2.71,0,0,0,.36-1.39m1.34,0a3.15,3.15,0,0,1-.77,2.21,2.71,2.71,0,0,1-2.14.89,2.61,2.61,0,0,1-2-.85,3.11,3.11,0,0,1-.76-2.15,3.21,3.21,0,0,1,.78-2.23,2.74,2.74,0,0,1,2.13-.87,2.67,2.67,0,0,1,2.07.86,3,3,0,0,1,.74,2.14M58,14.32H56.51v2.84c0,.72.26,1.08.76,1.08a2.35,2.35,0,0,0,.58-.06l0,1a2.79,2.79,0,0,1-1,.15,1.57,1.57,0,0,1-1.2-.47,2.32,2.32,0,0,1-.43-1.58V14.32h-.86v-1h.86V12.27l1.27-.38v1.45H58Zm-4.31,2.59a2.17,2.17,0,0,1-.72,1.69,3.22,3.22,0,0,1-2.21.71,3.84,3.84,0,0,1-2.1-.51l.3-1.08a3.61,3.61,0,0,0,1.88.51,1.76,1.76,0,0,0,1.14-.33,1.1,1.1,0,0,0,.41-.89,1.12,1.12,0,0,0-.34-.83,3.06,3.06,0,0,0-1.12-.62c-1.42-.53-2.13-1.31-2.13-2.32a2,2,0,0,1,.76-1.64,3,3,0,0,1,2-.64,3.92,3.92,0,0,1,1.84.39L53,12.41A3.22,3.22,0,0,0,51.45,12a1.55,1.55,0,0,0-1.07.34,1,1,0,0,0-.33.73,1,1,0,0,0,.38.8,4.14,4.14,0,0,0,1.17.62,3.87,3.87,0,0,1,1.54,1,2.05,2.05,0,0,1,.5,1.4m-8.84-.67a2.4,2.4,0,0,0-.39-1.41,1.38,1.38,0,0,0-2-.25,1.47,1.47,0,0,0-.51.83,1.68,1.68,0,0,0-.06.4v1a1.56,1.56,0,0,0,.39,1.08,1.41,1.41,0,0,0,2.16-.13,2.48,2.48,0,0,0,.41-1.49m1.32,0a3.32,3.32,0,0,1-.81,2.36,2.34,2.34,0,0,1-1.8.77,1.81,1.81,0,0,1-1.67-.83v3.07h-1.3s0-7.56,0-8.22h1.14l.08.93h0a2.31,2.31,0,0,1,3.7-.23,3.23,3.23,0,0,1,.69,2.15m-8,0a2.39,2.39,0,0,0-.38-1.41,1.34,1.34,0,0,0-1.13-.57,1.3,1.3,0,0,0-.87.32,1.48,1.48,0,0,0-.52.83,2.57,2.57,0,0,0-.06.4v1a1.52,1.52,0,0,0,.4,1.08,1.29,1.29,0,0,0,1,.44,1.32,1.32,0,0,0,1.14-.57,2.42,2.42,0,0,0,.41-1.49m1.33,0a3.32,3.32,0,0,1-.81,2.36,2.41,2.41,0,0,1-1.81.77,1.82,1.82,0,0,1-1.67-.83v3.07H33.82s0-7.56,0-8.22h1.14l.07.93h0a2.31,2.31,0,0,1,3.7-.23,3.23,3.23,0,0,1,.69,2.15m-9.07-.38-.69-2.12c-.07-.21-.21-.72-.41-1.52h0c-.08.34-.21.85-.39,1.52l-.67,2.12Zm2.37,3.38H31.31l-.76-2.38H27.92l-.72,2.38H25.85l2.61-8.11h1.61Z"/><path class="cls-1" d="M73.24,6.44c0-.44-.22-.75-.63-.75a.75.75,0,0,0-.7.75Zm.58.46H71.91a.82.82,0,0,0,.9.85,2.13,2.13,0,0,0,.78-.14l.1.45a2.37,2.37,0,0,1-1,.18,1.34,1.34,0,0,1-1.43-1.45,1.41,1.41,0,0,1,1.36-1.55c.74,0,1.18.55,1.2,1.37a1.43,1.43,0,0,1,0,.29M70.36,8.18h-.64V6.54c0-.51-.19-.77-.58-.77a.63.63,0,0,0-.64.68V8.18h-.63V4h.63V5.72a1,1,0,0,1,.88-.47c.61,0,1,.47,1,1.22ZM67,5.79h-.7V7.18c0,.36.12.54.37.54a1.84,1.84,0,0,0,.28,0l0,.48a1.34,1.34,0,0,1-.49.07c-.51,0-.81-.28-.81-1V5.79h-.42V5.31h.42V4.78l.63-.19v.72H67ZM62.69,8.18h-.64V6.53c0-.51-.2-.76-.58-.76a.66.66,0,0,0-.64.7V8.18h-.64v-2c0-.25,0-.53,0-.82h.56l0,.44h0a1,1,0,0,1,.91-.5c.6,0,1,.46,1,1.21ZM57.84,5.72c-.46,0-.75.43-.75,1s.3,1,.75,1,.75-.46.75-1-.3-1-.75-1m0,2.53a1.37,1.37,0,0,1-1.38-1.48,1.4,1.4,0,0,1,1.43-1.52,1.35,1.35,0,0,1,1.38,1.47,1.41,1.41,0,0,1-1.43,1.53M53.13,6.49a.69.69,0,0,0-.67-.74c-.48,0-.77.42-.77,1s.3,1,.75,1A.72.72,0,0,0,53.13,7Zm.09,1.69,0-.46h0a1,1,0,0,1-.93.53,1.31,1.31,0,0,1-1.2-1.47,1.36,1.36,0,0,1,1.26-1.53.86.86,0,0,1,.81.39V4h.65s0,4,0,4.19ZM49.5,6.75c-.71,0-1.06.17-1.06.58a.4.4,0,0,0,.43.45.61.61,0,0,0,.63-.59Zm.09,1.43-.05-.33h0a1,1,0,0,1-.84.4.83.83,0,0,1-.88-.85c0-.71.61-1.07,1.67-1.07V6.27c0-.37-.2-.56-.59-.56a1.34,1.34,0,0,0-.75.21L48,5.5a1.76,1.76,0,0,1,1-.25c.75,0,1.13.4,1.13,1.19V7.5a5.63,5.63,0,0,0,0,.68ZM45.66,5.72c-.46,0-.75.43-.75,1s.3,1,.75,1,.75-.46.75-1-.3-1-.75-1m0,2.53a1.37,1.37,0,0,1-1.38-1.48,1.4,1.4,0,0,1,1.43-1.52,1.35,1.35,0,0,1,1.38,1.47,1.41,1.41,0,0,1-1.43,1.53m-2.33-.07h-.64V4h.64Zm-1.76,0h-.64V6.53c0-.51-.19-.76-.58-.76a.66.66,0,0,0-.63.7V8.18h-.64v-2c0-.25,0-.53,0-.82h.57l0,.44h0a1,1,0,0,1,.91-.5c.61,0,1,.46,1,1.21ZM38.24,5.31l-.9,2.87h-.58l-.37-1.25c-.09-.3-.17-.61-.23-.92a6,6,0,0,1-.25.92l-.39,1.25h-.59l-.85-2.87h.66l.32,1.37c.08.32.14.63.2.92a6.94,6.94,0,0,1,.25-.92l.4-1.37h.52l.39,1.34c.1.33.18.65.24.95h0a7.72,7.72,0,0,1,.2-.95l.35-1.34Zm-6.19.41c-.46,0-.76.43-.76,1s.3,1,.75,1,.75-.46.75-1-.29-1-.74-1m0,2.53a1.37,1.37,0,0,1-1.39-1.48,1.4,1.4,0,0,1,1.43-1.52,1.36,1.36,0,0,1,1.39,1.47A1.41,1.41,0,0,1,32,8.25M27.76,4.67a2.51,2.51,0,0,0-.51,0v3l.43,0a1.41,1.41,0,0,0,1.53-1.6,1.3,1.3,0,0,0-1.45-1.44m-.21,3.55a8.2,8.2,0,0,1-.94-.05V4.25a6.79,6.79,0,0,1,1.1-.08c1.49,0,2.18.73,2.18,1.93,0,1.37-.81,2.12-2.34,2.12"/></g></g></symbol><symbol id="climat-online-logo" viewBox="0 0 265.037 71.97"><path class="b" d="M42.981.343A36.288,36.288,0,0,1,68.819,10.578a35.465,35.465,0,0,1,7.766,11.273A34.1,34.1,0,0,1,79.376,35.7,33.962,33.962,0,0,1,76.584,49.55,35.143,35.143,0,0,1,57.259,68.3a35.787,35.787,0,0,1-14.315,2.791H15.89V.343Zm9.09,55.684a19.719,19.719,0,0,0,6.871-4.688,22.188,22.188,0,0,0,4.4-7.157,22.76,22.76,0,0,0,1.575-8.589,23.118,23.118,0,0,0-1.575-8.66,21.83,21.83,0,0,0-4.4-6.978,21.007,21.007,0,0,0-6.871-4.688,24.049,24.049,0,0,0-9.09-1.825H30.348V57.817H42.981a21.472,21.472,0,0,0,9.09-1.789" transform="translate(40.975 0.873)"/><path class="b" d="M21.472,0A21.472,21.472,0,1,0,42.944,21.472,21.472,21.472,0,0,0,21.472,0m0,30.49a8.875,8.875,0,1,1,6.42-2.6,8.875,8.875,0,0,1-6.42,2.6"/><path class="b" d="M43.451,12.453v9.054H40.66V1.61h2.791v8.446h2L52.148,1.61h3.364l-7.658,9.412L55.8,21.507H52.47l-6.943-9.054Z" transform="translate(104.849 4.152)"/><path class="b" d="M58.982,4.043H51.825V7.622c-.322,8.625-1.682,14.028-5.762,14.028H45.24V19.11h.394c2.648,0,3.328-5.654,3.579-12.454V1.61H61.7v19.9H58.875Z" transform="translate(116.659 4.152)"/><path class="b" d="M54.131,21.507H51.34V1.61h2.791V17.392L64.832,1.61h2.791v19.9H64.832V5.725Z" transform="translate(132.389 4.152)"/><path class="b" d="M60.151,4.187V21.507H57.36V1.61h4.688L67.13,18.179,72.211,1.61H76.9v19.9H74.108V4.187L68.6,21.507H65.663Z" transform="translate(147.913 4.152)"/><path class="b" d="M74.219,1.61l7.479,19.9H78.692L77.117,17.32H67.992l-1.539,4.294H63.59l7.372-19.9Zm2.04,13.205L72.68,4.437,69.1,14.815Z" transform="translate(163.978 4.152)"/><path class="b" d="M68.14,4.043V1.61H83.886V4.043H77.409V21.507H74.617V4.043Z" transform="translate(175.711 4.152)"/><path class="b" d="M40.569,20.088a9.376,9.376,0,1,1,18.645,0,9.376,9.376,0,1,1-18.645,0m15.782,0c0-5.153-2.827-7.945-6.477-7.945s-6.442,2.791-6.442,7.945,2.827,7.945,6.442,7.945,6.477-2.827,6.477-7.945" transform="translate(104.475 25.039)"/><path class="b" d="M62.9,29.727H60.111V20.709H49.661v9.018H46.87V9.83h2.791v8.446h10.45V9.83H62.9Z" transform="translate(120.862 25.348)"/><path class="b" d="M66.062,12.16H58.9v3.579c-.322,8.625-1.682,14.028-5.762,14.028H52.32V27.334h.394c2.648,0,3.328-5.654,3.579-12.454V9.87H69.068v19.9H66.241Z" transform="translate(134.916 25.452)"/><path class="b" d="M68.22,9.83l7.479,19.9H72.693L71.118,25.4H62.172l-1.539,4.33H57.77l7.372-19.9Zm2,13.205L66.645,12.657,63.066,23.035Z" transform="translate(148.97 25.348)"/><path class="b" d="M66.341,32.9H63.55V13h2.791V28.784L77.077,13h2.791V32.9H77.077V17.189Zm5.4-21.007c-3.149,0-4.688-1.4-4.974-3.292h1.968c0,1.038,1.181,1.646,2.9,1.646S74.358,9.6,74.572,8.6h2.111c-.215,1.9-1.825,3.292-5.082,3.292" transform="translate(163.875 22.177)"/><path class="b" d="M85.612,29.727H82.821V20.709H72.371v9.018H69.58V9.83h2.791v8.446h10.45V9.83h2.791Z" transform="translate(179.424 25.348)"/><g class="c" transform="translate(145.044 62.233)"><rect class="d" width="119.671" height="9.734"/></g></symbol><symbol id="daikin-logo" viewBox="0 0 170 37">
<path d="M39.0277 0.572693H0.567871V36.4275L39.0277 0.572693Z" fill="#44C8F5"/>
<path d="M19.7942 0.572727H0.566895V18.5084L19.7942 0.572727Z" fill="#231F20"/>
<path d="M92.7328 8.35509L87.7124 28.6379H96.5826L101.599 8.35509H92.7328Z" fill="#00A0E4"/>
<path d="M72.4744 20.1105H70.4401L73.72 14.2592L74.7838 20.1105H72.4744ZM71.2123 8.35296L59.8047 28.6348H65.6713L67.5648 25.2541H75.7091L76.3159 28.6348H84.9746L81.2943 8.35296H71.2123Z" fill="#00A0E4"/>
<path d="M133.241 8.35509L128.234 28.6379H137.102L142.11 8.35509H133.241Z" fill="#00A0E4"/>
<path d="M129.277 8.35509H120.188L112.58 14.9898L114.241 8.35509H105.739L100.732 28.6379H109.207L110.938 21.6359L115.47 28.6379H125.728L118.13 18.0156L129.277 8.35509Z" fill="#00A0E4"/>
<path d="M52.8446 17.5725C52.8446 17.5725 52.2685 24.1605 46.713 24.1605H43.5698L46.3382 13.2206H49.1909C50.2116 13.2268 53.166 13.4945 52.8446 17.5725ZM52.3948 8.36443L50.1007 8.35717H39.0022L33.9951 28.6317H45.0156L49.3757 28.6379C55.5144 28.6379 61.5556 24.0204 61.5556 16.9478C61.5556 8.62591 52.3948 8.36443 52.3948 8.36443Z" fill="#00A0E4"/>
<path d="M163.294 8.35198L160.336 20.2953L156.394 8.35198H146.53L141.519 28.6379H147.653L150.64 16.5898L154.593 28.6379H164.415L169.434 8.35198H163.294Z" fill="#00A0E4"/>
</symbol><symbol id="google" viewBox="0 0 83.68 25.82"><g id="&#x421;&#x43B;&#x43E;&#x439;_2" data-name="&#x421;&#x43B;&#x43E;&#x439; 2"><g id="&#x421;&#x43B;&#x43E;&#x439;_1-2" data-name="&#x421;&#x43B;&#x43E;&#x439; 1"><path class="cls-2" d="M79.16,24.36H3a3.05,3.05,0,0,1-3-3.05V3.05A3.05,3.05,0,0,1,3,0H79.16a3.05,3.05,0,0,1,3,3.05V21.31a3.05,3.05,0,0,1-3,3.05" transform="translate(1.47 0.73)"/><path class="cls-3" d="M79.16,0H3A3.05,3.05,0,0,0,0,3.05V21.31a3.05,3.05,0,0,0,3,3.05H79.16a3.05,3.05,0,0,0,3-3.05V3.05a3.05,3.05,0,0,0-3-3m0,.49a2.56,2.56,0,0,1,2.56,2.56V21.31a2.56,2.56,0,0,1-2.56,2.56H3A2.56,2.56,0,0,1,.49,21.31V3.05A2.55,2.55,0,0,1,3,.49Z" transform="translate(1.47 0.73)"/><path class="cls-4" d="M28.87,6.24a1.67,1.67,0,0,1-.45,1.22A1.76,1.76,0,0,1,27.08,8a1.87,1.87,0,0,1-1.35-.55,1.84,1.84,0,0,1-.55-1.36,1.88,1.88,0,0,1,1.9-1.91,1.93,1.93,0,0,1,.75.15,1.55,1.55,0,0,1,.57.41l-.32.32a1.23,1.23,0,0,0-1-.43,1.35,1.35,0,0,0-1,.41,1.39,1.39,0,0,0-.42,1,1.44,1.44,0,0,0,2.44,1,1.14,1.14,0,0,0,.3-.74H27.08V6h1.77Z" transform="translate(1.47 0.73)"/><path class="cls-5" d="M28.89,6.24a1.66,1.66,0,0,1-.45,1.23A1.78,1.78,0,0,1,27.08,8a1.9,1.9,0,0,1-1.36-.55,1.86,1.86,0,0,1-.56-1.38,1.9,1.9,0,0,1,1.92-1.93,2,2,0,0,1,.76.15,1.57,1.57,0,0,1,.57.42l-.32.32a1.25,1.25,0,0,0-1-.44,1.41,1.41,0,0,0-1,.41,1.45,1.45,0,0,0-.43,1.07,1.41,1.41,0,0,0,.43,1.06,1.45,1.45,0,0,0,2,0,1.17,1.17,0,0,0,.31-.75H27.08V6h1.79Z" transform="translate(1.47 0.73)"/><polygon class="cls-4" points="33.15 5.44 31.49 5.44 31.49 6.6 32.99 6.6 32.99 7.04 31.49 7.04 31.49 8.2 33.15 8.2 33.15 8.65 31.02 8.65 31.02 5 33.15 5 33.15 5.44"/><polygon class="cls-5" points="33.17 5.43 31.48 5.43 31.48 6.6 33.01 6.6 33.01 7.04 31.48 7.04 31.48 8.22 33.17 8.22 33.17 8.67 31 8.67 31 4.97 33.17 4.97 33.17 5.43"/><polygon class="cls-4" points="35.13 8.65 34.66 8.65 34.66 5.44 33.64 5.44 33.64 5 36.15 5 36.15 5.44 35.13 5.44 35.13 8.65"/><polygon class="cls-5" points="35.14 8.67 34.66 8.67 34.66 5.43 33.62 5.43 33.62 4.97 36.17 4.97 36.17 5.43 35.14 5.43 35.14 8.67"/><rect class="cls-4" x="37.97" y="4.99" width="0.47" height="3.66"/><rect class="cls-5" x="37.95" y="4.97" width="0.51" height="3.7"/><polygon class="cls-4" points="40.52 8.65 40.05 8.65 40.05 5.44 39.03 5.44 39.03 5 41.54 5 41.54 5.44 40.52 5.44 40.52 8.65"/><polygon class="cls-5" points="40.52 8.67 40.05 8.67 40.05 5.43 39.01 5.43 39.01 4.97 41.56 4.97 41.56 5.43 40.52 5.43 40.52 8.67"/><path class="cls-4" d="M42.49,7.14a1.35,1.35,0,0,0,1,.41,1.34,1.34,0,0,0,1-.41,1.39,1.39,0,0,0,.41-1,1.4,1.4,0,0,0-.41-1,1.34,1.34,0,0,0-1-.41,1.35,1.35,0,0,0-1,.41,1.44,1.44,0,0,0-.41,1,1.42,1.42,0,0,0,.41,1m2.33.3a1.88,1.88,0,0,1-2.68,0,1.88,1.88,0,0,1-.53-1.35,1.88,1.88,0,0,1,.53-1.35,1.88,1.88,0,0,1,2.68,0,1.86,1.86,0,0,1,.54,1.35,1.85,1.85,0,0,1-.54,1.35" transform="translate(1.47 0.73)"/><path class="cls-5" d="M42.48,7.15a1.34,1.34,0,0,0,1,.42,1.37,1.37,0,0,0,1-.42,1.46,1.46,0,0,0,.41-1.06A1.46,1.46,0,0,0,44.49,5a1.37,1.37,0,0,0-1-.42,1.34,1.34,0,0,0-1,.42,1.46,1.46,0,0,0-.41,1.06A1.46,1.46,0,0,0,42.48,7.15Zm2.36.31A1.83,1.83,0,0,1,43.48,8a1.81,1.81,0,0,1-1.35-.56,1.9,1.9,0,0,1-.55-1.37,1.9,1.9,0,0,1,.55-1.37,1.81,1.81,0,0,1,1.35-.56,1.85,1.85,0,0,1,1.36.56,1.91,1.91,0,0,1,.54,1.37A1.89,1.89,0,0,1,44.84,7.46Z" transform="translate(1.47 0.73)"/><polygon class="cls-4" points="47.49 8.65 47.49 5 48.06 5 49.84 7.84 49.86 7.84 49.84 7.13 49.84 5 50.31 5 50.31 8.65 49.82 8.65 47.96 5.67 47.94 5.67 47.96 6.37 47.96 8.65 47.49 8.65"/><polygon class="cls-5" points="47.47 8.67 47.47 4.97 48.05 4.97 49.85 7.85 49.87 7.85 49.85 7.14 49.85 4.97 50.33 4.97 50.33 8.67 49.83 8.67 47.95 5.66 47.92 5.66 47.95 6.37 47.95 8.67 47.47 8.67"/><path class="cls-4" d="M65.12,18.27h1.13V10.66H65.12ZM75.35,13.4l-1.3,3.3h0l-1.35-3.3H71.43l2,4.61L72.3,20.58h1.19l3.12-7.18Zm-6.44,4c-.38,0-.9-.18-.9-.64s.65-.82,1.21-.82a2,2,0,0,1,1,.26,1.38,1.38,0,0,1-1.35,1.2M69,13.23a2.12,2.12,0,0,0-2,1.17l1,.42a1.06,1.06,0,0,1,1-.56,1.1,1.1,0,0,1,1.2,1v.08a2.51,2.51,0,0,0-1.19-.3c-1.08,0-2.19.6-2.19,1.72a1.75,1.75,0,0,0,1.89,1.67,1.62,1.62,0,0,0,1.45-.74h0v.59h1.09V15.34A2.09,2.09,0,0,0,69,13.23m-7,1.1H60.41V11.71H62a1.31,1.31,0,1,1,0,2.62m0-3.67H59.27v7.61h1.14V15.38H62a2.36,2.36,0,1,0,0-4.72M47.15,17.41a1.57,1.57,0,0,1,0-3.14,1.46,1.46,0,0,1,1.38,1.58,1.45,1.45,0,0,1-1.38,1.56m1.3-3.59h0a1.79,1.79,0,0,0-1.36-.58,2.6,2.6,0,0,0,0,5.19,1.76,1.76,0,0,0,1.36-.59h0v.37c0,1-.53,1.52-1.38,1.52a1.44,1.44,0,0,1-1.31-.92l-1,.41a2.47,2.47,0,0,0,2.3,1.53,2.37,2.37,0,0,0,2.46-2.7V13.4H48.45Zm1.86,4.45h1.14V10.66H50.31Zm2.82-2.51a1.42,1.42,0,0,1,1.35-1.51,1,1,0,0,1,1,.54Zm3.53-.87a2.39,2.39,0,0,0-2.21-1.65A2.47,2.47,0,0,0,52,15.84a2.54,2.54,0,0,0,2.57,2.59,2.57,2.57,0,0,0,2.16-1.15l-.88-.59a1.5,1.5,0,0,1-1.28.72,1.31,1.31,0,0,1-1.25-.79l3.46-1.43ZM29.07,14v1.1H31.7a2.24,2.24,0,0,1-.6,1.38,2.66,2.66,0,0,1-2,.81,2.93,2.93,0,0,1,0-5.85,2.79,2.79,0,0,1,2,.78l.78-.77a3.83,3.83,0,0,0-2.76-1.11,4,4,0,1,0,0,8,3.71,3.71,0,0,0,2.81-1.13,3.67,3.67,0,0,0,.95-2.57,3.54,3.54,0,0,0-.06-.69Zm6.75,3.37a1.5,1.5,0,0,1-1.46-1.57,1.46,1.46,0,1,1,2.92,0,1.5,1.5,0,0,1-1.46,1.57m0-4.16a2.59,2.59,0,1,0,2.6,2.59,2.55,2.55,0,0,0-2.6-2.59m5.67,4.16A1.5,1.5,0,0,1,40,15.84a1.46,1.46,0,1,1,2.92,0,1.5,1.5,0,0,1-1.46,1.57m0-4.17a2.6,2.6,0,1,0,2.6,2.6,2.56,2.56,0,0,0-2.6-2.6" transform="translate(1.47 0.73)"/><g class="cls-6"><rect class="cls-7" x="1.89" y="4.06" width="16.24" height="16.24" transform="translate(-4.21 11.38) rotate(-45)"/></g><g class="cls-8"><rect class="cls-9" x="15.42" y="10.4" width="6.24" height="5.03"/></g><g class="cls-10"><rect class="cls-11" x="5.07" y="9.76" width="12.68" height="12.68" transform="translate(-6.57 13.51) rotate(-45)"/></g><g class="cls-12"><rect class="cls-13" x="5.1" y="1.94" width="12.65" height="12.65" transform="translate(-1.02 11.23) rotate(-45)"/></g><path class="cls-2" d="M6.64,20h0m0,0h0m0,0a.8.8,0,0,1-.19-.13h0a.59.59,0,0,0,.19.13" transform="translate(1.47 0.73)"/><g class="cls-14"><rect class="cls-15" x="6.39" y="19.8" width="0.02" height="0.02" transform="translate(-10.66 11.06) rotate(-45.01)"/></g><g class="cls-16"><rect class="cls-17" x="5.96" y="11.88" width="10.94" height="10.94" transform="translate(-7.45 13.9) rotate(-45)"/></g><g class="cls-18"><rect class="cls-19" x="5.79" y="18.85" width="0.9" height="0.9" transform="translate(-10.35 10.79) rotate(-45)"/></g><g class="cls-20"><rect class="cls-21" x="6.35" y="19.71" width="0.06" height="0.06" transform="translate(-10.62 11.02) rotate(-45)"/></g><path class="cls-2" d="M16.52,14.75l3-1.69Z" transform="translate(1.47 0.73)"/><g class="cls-22"><rect class="cls-23" x="17.93" y="12.91" width="3.67" height="2.57"/></g><g class="cls-24"><rect class="cls-25" x="16.45" y="14.68" width="0.08" height="0.08" transform="translate(-4.11 16.7) rotate(-44.99)"/></g><path class="cls-26" d="M20.12,12.07a1.13,1.13,0,0,0-.62-.77,1.13,1.13,0,0,1,.62.77m-.62-.77L7.62,4.55l8.9,5.06h0ZM6.07,5.45v0m0,0v0m0,0v0m0,0v0m0,0a1.15,1.15,0,0,1,.27-.72.76.76,0,0,1,.4-.22.92.92,0,0,0-.67.94m.67-.94h0m0,0h0m0,0h0" transform="translate(1.47 0.73)"/><g class="cls-27"><rect class="cls-28" x="17.93" y="10.34" width="3.67" height="2.57"/></g><g class="cls-29"><rect class="cls-30" x="5.96" y="1.53" width="10.94" height="10.94" transform="translate(-0.13 10.87) rotate(-45)"/></g></g></g></symbol><symbol id="icon-app-final" viewBox="0 0 512 512">
<style type="text/css">
	.st0{fill:url(#SVGID_1_);}
	.st1{fill:#FFFFFF;}
	.st2{fill:#231F20;}
</style>
<linearGradient id="SVGID_1_" gradientUnits="userSpaceOnUse" x1="256" y1="-0.1102" x2="256" y2="511.8898" gradientTransform="matrix(1 0 0 -1 0 511.8898)">
	<stop offset="0.1078" style="stop-color:#D5D3FF"/>
	<stop offset="0.2388" style="stop-color:#CDD0FF"/>
	<stop offset="0.4374" style="stop-color:#B8C9FF"/>
	<stop offset="0.6789" style="stop-color:#96BDFF"/>
	<stop offset="0.952" style="stop-color:#67ACFF"/>
	<stop offset="1" style="stop-color:#5EA9FF"/>
</linearGradient>
<path class="st0" d="M512,0H0v512h512V0z"/>
<g>
	<path class="st1" d="M418.1,208.3c0-6.1-2.7-11.8-7.5-15.6L268.5,78.4c-7.3-5.9-17.8-5.9-25.1,0L101.3,192.7
		c-4.7,3.8-7.5,9.5-7.5,15.6v189.8c0,11,9,20,20,20h284.3c11,0,20-9,20-20V208.3z"/>
	<g>
		<path class="st1" d="M434.9,237.4c-2.4,0-4.9-0.8-6.9-2.4L254,95c-4.7-3.8-5.5-10.7-1.7-15.5c3.8-4.7,10.7-5.5,15.5-1.7l174,139.9
			c4.7,3.8,5.5,10.7,1.7,15.5C441.3,236,438.1,237.4,434.9,237.4z"/>
	</g>
	<g>
		<path class="st1" d="M250.7,75.4c-2.4,0-4.9,0.8-6.9,2.4l-174,139.9c-4.7,3.8-5.5,10.7-1.7,15.5c3.8,4.7,10.7,5.5,15.5,1.7
			L257.6,95c4.7-3.8,5.5-10.7,1.7-15.5C257.1,76.8,253.9,75.4,250.7,75.4z"/>
	</g>
</g>
<g>
	<path class="st2" d="M306.6,215.9c10.8,0,20.7,1.9,30.3,5.7c9.6,4.1,17.6,9.3,24.6,16.1c7,6.8,12.5,14.8,16.5,24
		c4.1,9.1,5.9,19.1,5.9,29.5c0,10.4-1.9,20.4-5.9,29.5c-4.1,9.1-9.6,17.1-16.5,24c-7,6.8-15,12.1-24.6,15.8
		c-9.6,4.1-19.5,5.9-30.3,5.9h-57.7V215.9H306.6z M325.7,334.4c5.7-2.3,10.6-5.7,14.7-10c4.1-4.2,7-9.3,9.3-15
		c2.3-5.7,3.4-11.7,3.4-18.2c0-6.5-1-12.7-3.4-18.4c-2.3-5.7-5.2-10.6-9.3-14.8c-4.1-4.2-8.9-7.7-14.7-10.1
		c-5.7-2.3-12.1-3.6-19.1-3.6h-26.9v94.2h26.9C313.6,338.2,320,337,325.7,334.4z"/>
	<path class="st2" d="M174,213.3c-25.4,0-46,20.6-46,46c0,25.4,20.6,46,46,46s46-20.6,46-46C219.9,234,199.4,213.3,174,213.3z
		 M174,278.2c-10.5,0-18.9-8.5-18.9-18.9c0-10.5,8.5-18.9,18.9-18.9c10.5,0,18.9,8.5,18.9,18.9C192.9,269.7,184.4,278.2,174,278.2z"/>
</g>
</symbol><symbol id="logo-daichi-color" viewBox="0 0 569.000000 103.000000" preserveAspectRatio="xMidYMid meet">

<g transform="translate(0.000000,103.000000) scale(0.100000,-0.100000)" fill="#000000" stroke="none">
<path d="M162 999 c-109 -54 -162 -143 -162 -274 0 -94 25 -160 84 -218 56
-57 110 -80 197 -85 109 -6 168 15 240 87 65 65 89 124 89 216 0 84 -23 145
-78 206 -65 73 -125 99 -228 99 -70 0 -89 -4 -142 -31z m231 -199 c31 -35 36
-84 12 -130 -21 -41 -53 -60 -101 -60 -81 0 -140 82 -111 152 38 89 136 108
200 38z"/>
<path d="M3598 1011 c-82 -26 -135 -61 -199 -127 -65 -69 -103 -143 -124 -239
-42 -198 10 -389 139 -513 109 -105 199 -136 375 -130 105 4 123 7 184 35 76
36 166 116 204 181 25 42 63 150 63 178 0 11 -22 14 -107 14 l-108 0 -19 -47
c-44 -107 -124 -157 -251 -157 -89 0 -126 14 -183 68 -46 43 -70 92 -84 175
-27 156 33 295 152 357 45 24 179 25 231 2 57 -25 105 -74 130 -133 l24 -55
108 0 c122 0 117 -5 88 89 -26 83 -60 137 -123 198 -97 91 -186 123 -343 122
-68 0 -118 -6 -157 -18z"/>
<path d="M790 515 l0 -507 248 4 c225 4 253 6 312 27 213 74 343 254 343 476
0 219 -129 400 -338 476 -54 20 -84 23 -312 27 l-253 4 0 -507z m489 289 c74
-22 151 -98 181 -179 54 -145 -9 -313 -144 -383 -46 -24 -64 -27 -178 -30
l-128 -4 0 306 0 306 108 0 c69 0 127 -6 161 -16z"/>
<path d="M2061 998 c-43 -120 -331 -968 -331 -977 0 -8 30 -11 112 -9 l111 3
35 103 34 102 207 0 207 0 34 -105 34 -105 113 0 c62 0 113 2 113 4 0 5 -324
961 -335 989 -6 15 -24 17 -166 17 -156 0 -160 0 -168 -22z m247 -385 l70
-213 -150 0 c-116 0 -149 3 -145 13 2 6 35 105 73 219 38 114 71 204 75 200 4
-4 38 -103 77 -219z"/>
<path d="M2880 515 l0 -505 105 0 105 0 0 505 0 505 -105 0 -105 0 0 -505z"/>
<path d="M4400 515 l0 -505 110 0 110 0 0 210 0 210 215 0 215 0 0 -210 0
-210 110 0 110 0 0 505 0 505 -110 0 -110 0 0 -205 0 -205 -215 0 -215 0 0
205 0 205 -110 0 -110 0 0 -505z"/>
<path d="M5480 515 l0 -505 105 0 105 0 0 505 0 505 -105 0 -105 0 0 -505z"/>
</g>
</symbol><symbol id="mobile-control-logo" viewBox="0 0 325.087 71.97"><path class="b" d="M43.214,4.159V20.872H40.53V1.69h4.509l4.9,16,4.9-16h4.509V20.872H56.67V4.159l-5.3,16.712H48.51Z" transform="translate(104.514 4.358)"/><path class="b" d="M46.932,11.685a9.018,9.018,0,1,1,17.893,0,9.018,9.018,0,1,1-17.893,0m15.209,0c0-4.939-2.756-7.658-6.227-7.658s-6.227,2.756-6.227,7.658,2.72,7.658,6.227,7.658,6.227-2.72,6.227-7.658" transform="translate(120.837 3.953)"/><path class="b" d="M60.157,9.277c4.259,0,6.835,1.754,6.835,5.654s-2.863,5.941-6.835,5.941H53V1.69H65.883V4.016H55.648V9.277Zm4.08,5.69c0-2.577-1.575-3.579-4.294-3.579H55.648v7.157h4.509c2.648,0,4.187-1.253,4.187-3.579" transform="translate(136.67 4.358)"/><path class="b" d="M60.6,20.872H57.92V1.69H60.6V16.9L70.911,1.69h2.684V20.872H70.911V5.627Z" transform="translate(149.357 4.358)"/><path class="b" d="M76.49,4.016h-6.8V7.38c-.322,8.3-1.646,13.492-5.583,13.492H63.32V18.546h.394c2.541,0,3.185-5.44,3.4-11.989V1.69H78.995V20.872H76.49Z" transform="translate(163.282 4.358)"/><path class="b" d="M71.8,1.69V8.847h2.827c4.8-.072,8.374,1.109,8.374,5.976s-3.579,6.048-8.2,6.048H69.12V1.69ZM80,14.824c0-3.185-2.326-3.579-5.261-3.579H71.8v7.3h2.935c2.935,0,5.261-.608,5.261-3.579" transform="translate(178.238 4.358)"/><path class="b" d="M89.3,20.872H86.616v-8.7H76.524v8.7H73.84V1.69h2.684V9.849H86.616V1.69H89.3Z" transform="translate(190.409 4.358)"/><path class="b" d="M79.3,11.685a9.018,9.018,0,1,1,17.893,0,9.018,9.018,0,1,1-17.893,0m15.209,0c0-4.939-2.72-7.658-6.227-7.658s-6.3,2.756-6.3,7.658,2.756,7.658,6.227,7.658,6.227-2.72,6.227-7.658" transform="translate(204.308 3.953)"/><path class="b" d="M98.386,1.69V4.016H88.044V9.849h9.734v2.326H88.044v6.37H98.386v2.326H85.36V1.69Z" transform="translate(220.116 4.358)"/><path class="b" d="M42.981.334A36.109,36.109,0,0,1,68.819,10.6a35.465,35.465,0,0,1,7.766,11.273,34.1,34.1,0,0,1,2.791,13.849,33.962,33.962,0,0,1-2.791,13.849A35.143,35.143,0,0,1,57.259,68.329,35.787,35.787,0,0,1,42.945,71.12H15.89V.334Zm9.09,55.72a19.718,19.718,0,0,0,6.871-4.688,22.188,22.188,0,0,0,4.4-7.157,22.76,22.76,0,0,0,1.575-8.589,23.118,23.118,0,0,0-1.575-8.66,21.83,21.83,0,0,0-4.4-6.978,21.007,21.007,0,0,0-6.871-4.688,24.049,24.049,0,0,0-9.09-1.825H30.348V57.843H42.981a21.472,21.472,0,0,0,9.09-1.789" transform="translate(40.975 0.847)"/><path class="b" d="M21.472,0A21.472,21.472,0,1,0,42.944,21.472,21.472,21.472,0,0,0,21.472,0m0,30.49a8.875,8.875,0,1,1,6.42-2.6,8.875,8.875,0,0,1-6.42,2.6"/><g class="c" transform="translate(145.044 62.197)"><rect class="d" width="180.043" height="9.734"/></g><path class="b" d="M43.24,27.153h1.789a2.362,2.362,0,0,0,2.29-1.288l.358-.68L40.52,9.94h2.9L49,22.394,54.155,9.94h2.97L49.968,25.972a5.332,5.332,0,0,1-4.9,3.579H43.1Z" transform="translate(104.488 25.632)"/><path class="b" d="M58,12.266H48.414v16.82H45.73V9.94H60.689V29.086H58Z" transform="translate(117.923 25.632)"/><path class="b" d="M65.287,15.737c0,4.76-3.257,5.8-7.945,5.8H54.05v7.587H51.33V9.94h5.976c4.688,0,7.945,1.038,7.945,5.8M54.014,19.316h3.579c2.791,0,5.01-.286,5.01-3.579s-2.219-3.579-5.01-3.579H54.014Z" transform="translate(132.363 25.632)"/><path class="b" d="M65.1,9.94l7.157,19.182h-2.9l-1.5-4.151H59.119l-1.5,4.151H54.86L62.017,9.94Zm1.968,12.7L63.485,12.66l-3.579,9.985Z" transform="translate(141.466 25.632)"/><path class="b" d="M67.4,9.94c3.579,0,6.728.93,6.728,4.724a4.76,4.76,0,0,1-2.111,4.223,4.545,4.545,0,0,1,2.9,4.545c0,4.08-3.042,5.69-6.871,5.69H60.49V9.94Zm.394,8.2c2.219,0,3.579-.859,3.579-3.113S69.9,12.195,67.79,12.195H63.174v5.941Zm.286,8.7c2.72,0,4.08-1.181,4.08-3.364S70.8,20.282,67.9,20.282H63.174v6.549Z" transform="translate(155.984 25.632)"/><path class="b" d="M78.224,12.266H71.46v3.328c-.286,8.3-1.61,13.527-5.547,13.527H65.09V26.8h.394c2.541,0,3.221-5.475,3.579-12.024V9.94H81.087V29.122h-2.72Z" transform="translate(167.846 25.632)"/><path class="b" d="M83.931,9.94v2.326H73.624v5.8h9.7v2.362h-9.7V26.76H83.931v2.326H70.94V9.94Z" transform="translate(182.931 25.632)"/><path class="b" d="M91.11,29.086H88.426v-8.7H78.37v8.7H75.65V9.94h2.72v8.124H88.426V9.94H91.11Z" transform="translate(195.077 25.632)"/><path class="b" d="M84.11,29.086H81.39V9.94h2.72V25.149L94.416,9.94H97.1V29.086H94.416V13.877Z" transform="translate(209.878 25.632)"/><path class="b" d="M100.226,9.94v2.326H89.884v5.8h9.734v2.362H89.884V26.76h10.342v2.326H87.2V9.94Z" transform="translate(224.86 25.632)"/></symbol></svg>