<svg xmlns="http://www.w3.org/2000/svg" xmlns:xlink="http://www.w3.org/1999/xlink" viewBox="0 0 83.68 25.82"><defs><style>.cls-1,.cls-5{fill:none;}.cls-2{fill:#231f20;}.cls-3{fill:#a6a6a6;}.cls-4{fill:#fff;}.cls-5{stroke:#fff;stroke-miterlimit:10;stroke-width:0.08px;}.cls-6{clip-path:url(#clip-path);}.cls-7{fill:url(#Безымянный_градиент_8);}.cls-8{clip-path:url(#clip-path-2);}.cls-9{fill:url(#Безымянный_градиент_2);}.cls-10{clip-path:url(#clip-path-3);}.cls-11{fill:url(#Безымянный_градиент_3);}.cls-12{clip-path:url(#clip-path-4);}.cls-13{fill:url(#Безымянный_градиент_4);}.cls-14{clip-path:url(#clip-path-5);}.cls-15{fill:url(#Безымянный_градиент_5);}.cls-16{clip-path:url(#clip-path-6);}.cls-17{fill:url(#Безымянный_градиент_6);}.cls-18{clip-path:url(#clip-path-7);}.cls-19{fill:url(#Безымянный_градиент_7);}.cls-20{clip-path:url(#clip-path-8);}.cls-21{fill:url(#Безымянный_градиент_10);}.cls-22{clip-path:url(#clip-path-9);}.cls-23{fill:url(#Безымянный_градиент_9);}.cls-24{clip-path:url(#clip-path-10);}.cls-25{fill:url(#Безымянный_градиент_10-2);}.cls-26{fill:#636466;}.cls-27{clip-path:url(#clip-path-11);}.cls-28{fill:url(#Безымянный_градиент_11);}.cls-29{clip-path:url(#clip-path-12);}.cls-30{fill:url(#Безымянный_градиент_12);}</style><clipPath id="clip-path" transform="translate(1.47 0.73)"><path class="cls-1" d="M6.07,5.41h0m0,0h0m0,0h0m0,0h0m0,.23V18.82a1.27,1.27,0,0,0,.28.86l.05,0,7.54-7.54L6.4,4.64a1.15,1.15,0,0,0-.33.9"/></clipPath><linearGradient id="Безымянный_градиент_8" x1="-466.79" y1="214.4" x2="-465.79" y2="214.4" gradientTransform="matrix(-14.45, 0, 0, 14.45, -6729.16, -3086.51)" gradientUnits="userSpaceOnUse"><stop offset="0" stop-color="#4b98d2"/><stop offset="0.01" stop-color="#4999d4"/><stop offset="0.26" stop-color="#42b9eb"/><stop offset="0.51" stop-color="#41c7f1"/><stop offset="0.69" stop-color="#51c8ec"/><stop offset="0.76" stop-color="#58c9ea"/><stop offset="1" stop-color="#5ccae8"/></linearGradient><clipPath id="clip-path-2" transform="translate(1.47 0.73)"><path class="cls-1" d="M13.94,12.18l2.52,2.52,3-1.73a1.13,1.13,0,0,0,.64-.79,1.06,1.06,0,0,1-.64.88,1,1,0,0,0,.63-1,.41.41,0,0,1,0,.11,1.13,1.13,0,0,0-.64-.79l-3-1.73Z"/></clipPath><linearGradient id="Безымянный_градиент_2" x1="-459.3" y1="206.63" x2="-458.3" y2="206.63" gradientTransform="matrix(-14.73, 0, 0, 14.73, -6745.23, -3031.6)" gradientUnits="userSpaceOnUse"><stop offset="0" stop-color="#fee000"/><stop offset="0.41" stop-color="#febc11"/><stop offset="0.78" stop-color="#faa41a"/><stop offset="1" stop-color="#f99d1c"/></linearGradient><clipPath id="clip-path-3" transform="translate(1.47 0.73)"><path class="cls-1" d="M6.64,20h0m0,0h0m.34.07a.94.94,0,0,1-.3-.05.94.94,0,0,0,.3.05,1.38,1.38,0,0,0,.68-.2,1.38,1.38,0,0,1-.68.2m-.59-.24,0,0Zm.05-.05h0a.78.78,0,0,0,.54.2,1.38,1.38,0,0,0,.68-.2l8.84-5h0l-2.52-2.52Z"/></clipPath><linearGradient id="Безымянный_градиент_3" x1="-463.27" y1="215.75" x2="-462.27" y2="215.75" gradientTransform="matrix(-19.6, 0, 0, 19.6, -9063.71, -4212.25)" gradientUnits="userSpaceOnUse"><stop offset="0" stop-color="#ef4149"/><stop offset="1" stop-color="#c31e64"/></linearGradient><clipPath id="clip-path-4" transform="translate(1.47 0.73)"><path class="cls-1" d="M6.4,4.64l7.54,7.54,2.52-2.52-8.84-5a1.4,1.4,0,0,0-.68-.2.78.78,0,0,0-.54.2m.35-.27h0m0,0h0m0,0h0m0,0h0m.14,0h0Zm0,0a1.38,1.38,0,0,1,.68.2,1.38,1.38,0,0,0-.68-.2Z"/></clipPath><linearGradient id="Безымянный_градиент_4" x1="-461.46" y1="241.31" x2="-460.46" y2="241.31" gradientTransform="matrix(0, 8.75, 8.75, 0, -2100.36, 4036.06)" gradientUnits="userSpaceOnUse"><stop offset="0" stop-color="#34a173"/><stop offset="0.07" stop-color="#31a871"/><stop offset="0.48" stop-color="#4cba70"/><stop offset="0.72" stop-color="#5abc6d"/><stop offset="0.8" stop-color="#60bd6c"/><stop offset="1" stop-color="#67be6a"/></linearGradient><clipPath id="clip-path-5" transform="translate(1.47 0.73)"><path class="cls-1" d="M6.39,19.8h0Z"/></clipPath><linearGradient id="Безымянный_градиент_5" x1="-494.05" y1="200.58" x2="-493.05" y2="200.58" gradientTransform="matrix(-4.76, 0, 0, 4.76, -2343.71, -935.96)" gradientUnits="userSpaceOnUse"><stop offset="0" stop-color="#5d8db7"/><stop offset="0.01" stop-color="#5f8db7"/><stop offset="0.26" stop-color="#5fa5c8"/><stop offset="0.51" stop-color="#5faecb"/><stop offset="0.76" stop-color="#69afc6"/><stop offset="1" stop-color="#6cb0c5"/></linearGradient><clipPath id="clip-path-6" transform="translate(1.47 0.73)"><path class="cls-1" d="M7.62,19.72a1.38,1.38,0,0,1-.68.2.78.78,0,0,1-.54-.2l-.05.05,0,0h0a.59.59,0,0,0,.19.13h0a.94.94,0,0,0,.3.05,1.38,1.38,0,0,0,.68-.2l8.89-5.06-.05-.05Z"/></clipPath><linearGradient id="Безымянный_градиент_6" x1="-463.27" y1="215.79" x2="-462.27" y2="215.79" gradientTransform="matrix(-19.6, 0, 0, 19.6, -9062.82, -4211.82)" gradientUnits="userSpaceOnUse"><stop offset="0" stop-color="#c85953"/><stop offset="1" stop-color="#aa4665"/></linearGradient><clipPath id="clip-path-7" transform="translate(1.47 0.73)"><path class="cls-1" d="M6.07,18.91a1.27,1.27,0,0,0,.28.86l.05-.05-.05,0a1.27,1.27,0,0,1-.28-.86Z"/></clipPath><linearGradient id="Безымянный_градиент_7" x1="-466.79" y1="214.57" x2="-465.79" y2="214.57" gradientTransform="matrix(-14.45, 0, 0, 14.45, -6725.19, -3081.85)" gradientUnits="userSpaceOnUse"><stop offset="0" stop-color="#5891c2"/><stop offset="0.01" stop-color="#5891c2"/><stop offset="0.26" stop-color="#59add5"/><stop offset="0.49" stop-color="#5ab6d9"/><stop offset="0.51" stop-color="#5ab7d9"/><stop offset="0.76" stop-color="#65b9d4"/><stop offset="1" stop-color="#69bad2"/></linearGradient><clipPath id="clip-path-8" transform="translate(1.47 0.73)"><polygon class="cls-1" points="6.35 19.77 6.4 19.72 6.4 19.72 6.35 19.77"/></clipPath><linearGradient id="Безымянный_градиент_10" x1="-463.27" y1="215.88" x2="-462.27" y2="215.88" gradientTransform="matrix(-19.6, 0, 0, 19.6, -9062.7, -4210.97)" gradientUnits="userSpaceOnUse"><stop offset="0" stop-color="#d6534f"/><stop offset="1" stop-color="#b33b65"/></linearGradient><clipPath id="clip-path-9" transform="translate(1.47 0.73)"><path class="cls-1" d="M19.49,13l-3,1.73.05.05,3-1.69a1.06,1.06,0,0,0,.64-.88,1.13,1.13,0,0,1-.64.79"/></clipPath><linearGradient id="Безымянный_градиент_9" x1="-459.3" y1="206.72" x2="-458.3" y2="206.72" gradientTransform="matrix(-14.73, 0, 0, 14.73, -6745.23, -3031.54)" gradientUnits="userSpaceOnUse"><stop offset="0" stop-color="#e1c936"/><stop offset="0.41" stop-color="#e2af33"/><stop offset="0.78" stop-color="#df9b33"/><stop offset="1" stop-color="#de9532"/></linearGradient><clipPath id="clip-path-10" transform="translate(1.47 0.73)"><polygon class="cls-1" points="16.46 14.7 16.52 14.75 16.46 14.7 16.46 14.7"/></clipPath><linearGradient id="Безымянный_градиент_10-2" x1="-469.3" y1="212.46" x2="-468.3" y2="212.46" gradientTransform="matrix(-12.17, 0, 0, 12.17, -5695.29, -2570.26)" xlink:href="#Безымянный_градиент_10"/><clipPath id="clip-path-11" transform="translate(1.47 0.73)"><path class="cls-1" d="M16.46,9.66l3,1.73a1.13,1.13,0,0,1,.64.79.41.41,0,0,0,0-.11,1.12,1.12,0,0,0-.63-.77l-3-1.69Z"/></clipPath><linearGradient id="Безымянный_градиент_11" x1="-459.3" y1="206.72" x2="-458.3" y2="206.72" gradientTransform="matrix(-14.73, 0, 0, 14.73, -6745.23, -3034.11)" gradientUnits="userSpaceOnUse"><stop offset="0" stop-color="#fde662"/><stop offset="0.41" stop-color="#ffcb5b"/><stop offset="0.78" stop-color="#fcb858"/><stop offset="1" stop-color="#fbb257"/></linearGradient><clipPath id="clip-path-12" transform="translate(1.47 0.73)"><path class="cls-1" d="M6.8,4.36h0a.76.76,0,0,0-.4.22l.05,0a.78.78,0,0,1,.54-.2,1.4,1.4,0,0,1,.68.2l8.84,5,.05-.05L7.62,4.55a1.38,1.38,0,0,0-.68-.2H6.8"/></clipPath><linearGradient id="Безымянный_градиент_12" x1="-461.46" y1="241.4" x2="-460.46" y2="241.4" gradientTransform="matrix(0, 8.75, 8.75, 0, -2101.17, 4035.69)" gradientUnits="userSpaceOnUse"><stop offset="0" stop-color="#6fb18f"/><stop offset="0.07" stop-color="#70b890"/><stop offset="0.48" stop-color="#7ec791"/><stop offset="0.8" stop-color="#8acb8d"/><stop offset="1" stop-color="#90cc8d"/></linearGradient></defs><g id="Слой_2" data-name="Слой 2"><g id="Слой_1-2" data-name="Слой 1"><path class="cls-2" d="M79.16,24.36H3a3.05,3.05,0,0,1-3-3.05V3.05A3.05,3.05,0,0,1,3,0H79.16a3.05,3.05,0,0,1,3,3.05V21.31a3.05,3.05,0,0,1-3,3.05" transform="translate(1.47 0.73)"/><path class="cls-3" d="M79.16,0H3A3.05,3.05,0,0,0,0,3.05V21.31a3.05,3.05,0,0,0,3,3.05H79.16a3.05,3.05,0,0,0,3-3.05V3.05a3.05,3.05,0,0,0-3-3m0,.49a2.56,2.56,0,0,1,2.56,2.56V21.31a2.56,2.56,0,0,1-2.56,2.56H3A2.56,2.56,0,0,1,.49,21.31V3.05A2.55,2.55,0,0,1,3,.49Z" transform="translate(1.47 0.73)"/><path class="cls-4" d="M28.87,6.24a1.67,1.67,0,0,1-.45,1.22A1.76,1.76,0,0,1,27.08,8a1.87,1.87,0,0,1-1.35-.55,1.84,1.84,0,0,1-.55-1.36,1.88,1.88,0,0,1,1.9-1.91,1.93,1.93,0,0,1,.75.15,1.55,1.55,0,0,1,.57.41l-.32.32a1.23,1.23,0,0,0-1-.43,1.35,1.35,0,0,0-1,.41,1.39,1.39,0,0,0-.42,1,1.44,1.44,0,0,0,2.44,1,1.14,1.14,0,0,0,.3-.74H27.08V6h1.77Z" transform="translate(1.47 0.73)"/><path class="cls-5" d="M28.89,6.24a1.66,1.66,0,0,1-.45,1.23A1.78,1.78,0,0,1,27.08,8a1.9,1.9,0,0,1-1.36-.55,1.86,1.86,0,0,1-.56-1.38,1.9,1.9,0,0,1,1.92-1.93,2,2,0,0,1,.76.15,1.57,1.57,0,0,1,.57.42l-.32.32a1.25,1.25,0,0,0-1-.44,1.41,1.41,0,0,0-1,.41,1.45,1.45,0,0,0-.43,1.07,1.41,1.41,0,0,0,.43,1.06,1.45,1.45,0,0,0,2,0,1.17,1.17,0,0,0,.31-.75H27.08V6h1.79Z" transform="translate(1.47 0.73)"/><polygon class="cls-4" points="33.15 5.44 31.49 5.44 31.49 6.6 32.99 6.6 32.99 7.04 31.49 7.04 31.49 8.2 33.15 8.2 33.15 8.65 31.02 8.65 31.02 5 33.15 5 33.15 5.44"/><polygon class="cls-5" points="33.17 5.43 31.48 5.43 31.48 6.6 33.01 6.6 33.01 7.04 31.48 7.04 31.48 8.22 33.17 8.22 33.17 8.67 31 8.67 31 4.97 33.17 4.97 33.17 5.43"/><polygon class="cls-4" points="35.13 8.65 34.66 8.65 34.66 5.44 33.64 5.44 33.64 5 36.15 5 36.15 5.44 35.13 5.44 35.13 8.65"/><polygon class="cls-5" points="35.14 8.67 34.66 8.67 34.66 5.43 33.62 5.43 33.62 4.97 36.17 4.97 36.17 5.43 35.14 5.43 35.14 8.67"/><rect class="cls-4" x="37.97" y="4.99" width="0.47" height="3.66"/><rect class="cls-5" x="37.95" y="4.97" width="0.51" height="3.7"/><polygon class="cls-4" points="40.52 8.65 40.05 8.65 40.05 5.44 39.03 5.44 39.03 5 41.54 5 41.54 5.44 40.52 5.44 40.52 8.65"/><polygon class="cls-5" points="40.52 8.67 40.05 8.67 40.05 5.43 39.01 5.43 39.01 4.97 41.56 4.97 41.56 5.43 40.52 5.43 40.52 8.67"/><path class="cls-4" d="M42.49,7.14a1.35,1.35,0,0,0,1,.41,1.34,1.34,0,0,0,1-.41,1.39,1.39,0,0,0,.41-1,1.4,1.4,0,0,0-.41-1,1.34,1.34,0,0,0-1-.41,1.35,1.35,0,0,0-1,.41,1.44,1.44,0,0,0-.41,1,1.42,1.42,0,0,0,.41,1m2.33.3a1.88,1.88,0,0,1-2.68,0,1.88,1.88,0,0,1-.53-1.35,1.88,1.88,0,0,1,.53-1.35,1.88,1.88,0,0,1,2.68,0,1.86,1.86,0,0,1,.54,1.35,1.85,1.85,0,0,1-.54,1.35" transform="translate(1.47 0.73)"/><path class="cls-5" d="M42.48,7.15a1.34,1.34,0,0,0,1,.42,1.37,1.37,0,0,0,1-.42,1.46,1.46,0,0,0,.41-1.06A1.46,1.46,0,0,0,44.49,5a1.37,1.37,0,0,0-1-.42,1.34,1.34,0,0,0-1,.42,1.46,1.46,0,0,0-.41,1.06A1.46,1.46,0,0,0,42.48,7.15Zm2.36.31A1.83,1.83,0,0,1,43.48,8a1.81,1.81,0,0,1-1.35-.56,1.9,1.9,0,0,1-.55-1.37,1.9,1.9,0,0,1,.55-1.37,1.81,1.81,0,0,1,1.35-.56,1.85,1.85,0,0,1,1.36.56,1.91,1.91,0,0,1,.54,1.37A1.89,1.89,0,0,1,44.84,7.46Z" transform="translate(1.47 0.73)"/><polygon class="cls-4" points="47.49 8.65 47.49 5 48.06 5 49.84 7.84 49.86 7.84 49.84 7.13 49.84 5 50.31 5 50.31 8.65 49.82 8.65 47.96 5.67 47.94 5.67 47.96 6.37 47.96 8.65 47.49 8.65"/><polygon class="cls-5" points="47.47 8.67 47.47 4.97 48.05 4.97 49.85 7.85 49.87 7.85 49.85 7.14 49.85 4.97 50.33 4.97 50.33 8.67 49.83 8.67 47.95 5.66 47.92 5.66 47.95 6.37 47.95 8.67 47.47 8.67"/><path class="cls-4" d="M65.12,18.27h1.13V10.66H65.12ZM75.35,13.4l-1.3,3.3h0l-1.35-3.3H71.43l2,4.61L72.3,20.58h1.19l3.12-7.18Zm-6.44,4c-.38,0-.9-.18-.9-.64s.65-.82,1.21-.82a2,2,0,0,1,1,.26,1.38,1.38,0,0,1-1.35,1.2M69,13.23a2.12,2.12,0,0,0-2,1.17l1,.42a1.06,1.06,0,0,1,1-.56,1.1,1.1,0,0,1,1.2,1v.08a2.51,2.51,0,0,0-1.19-.3c-1.08,0-2.19.6-2.19,1.72a1.75,1.75,0,0,0,1.89,1.67,1.62,1.62,0,0,0,1.45-.74h0v.59h1.09V15.34A2.09,2.09,0,0,0,69,13.23m-7,1.1H60.41V11.71H62a1.31,1.31,0,1,1,0,2.62m0-3.67H59.27v7.61h1.14V15.38H62a2.36,2.36,0,1,0,0-4.72M47.15,17.41a1.57,1.57,0,0,1,0-3.14,1.46,1.46,0,0,1,1.38,1.58,1.45,1.45,0,0,1-1.38,1.56m1.3-3.59h0a1.79,1.79,0,0,0-1.36-.58,2.6,2.6,0,0,0,0,5.19,1.76,1.76,0,0,0,1.36-.59h0v.37c0,1-.53,1.52-1.38,1.52a1.44,1.44,0,0,1-1.31-.92l-1,.41a2.47,2.47,0,0,0,2.3,1.53,2.37,2.37,0,0,0,2.46-2.7V13.4H48.45Zm1.86,4.45h1.14V10.66H50.31Zm2.82-2.51a1.42,1.42,0,0,1,1.35-1.51,1,1,0,0,1,1,.54Zm3.53-.87a2.39,2.39,0,0,0-2.21-1.65A2.47,2.47,0,0,0,52,15.84a2.54,2.54,0,0,0,2.57,2.59,2.57,2.57,0,0,0,2.16-1.15l-.88-.59a1.5,1.5,0,0,1-1.28.72,1.31,1.31,0,0,1-1.25-.79l3.46-1.43ZM29.07,14v1.1H31.7a2.24,2.24,0,0,1-.6,1.38,2.66,2.66,0,0,1-2,.81,2.93,2.93,0,0,1,0-5.85,2.79,2.79,0,0,1,2,.78l.78-.77a3.83,3.83,0,0,0-2.76-1.11,4,4,0,1,0,0,8,3.71,3.71,0,0,0,2.81-1.13,3.67,3.67,0,0,0,.95-2.57,3.54,3.54,0,0,0-.06-.69Zm6.75,3.37a1.5,1.5,0,0,1-1.46-1.57,1.46,1.46,0,1,1,2.92,0,1.5,1.5,0,0,1-1.46,1.57m0-4.16a2.59,2.59,0,1,0,2.6,2.59,2.55,2.55,0,0,0-2.6-2.59m5.67,4.16A1.5,1.5,0,0,1,40,15.84a1.46,1.46,0,1,1,2.92,0,1.5,1.5,0,0,1-1.46,1.57m0-4.17a2.6,2.6,0,1,0,2.6,2.6,2.56,2.56,0,0,0-2.6-2.6" transform="translate(1.47 0.73)"/><g class="cls-6"><rect class="cls-7" x="1.89" y="4.06" width="16.24" height="16.24" transform="translate(-4.21 11.38) rotate(-45)"/></g><g class="cls-8"><rect class="cls-9" x="15.42" y="10.4" width="6.24" height="5.03"/></g><g class="cls-10"><rect class="cls-11" x="5.07" y="9.76" width="12.68" height="12.68" transform="translate(-6.57 13.51) rotate(-45)"/></g><g class="cls-12"><rect class="cls-13" x="5.1" y="1.94" width="12.65" height="12.65" transform="translate(-1.02 11.23) rotate(-45)"/></g><path class="cls-2" d="M6.64,20h0m0,0h0m0,0a.8.8,0,0,1-.19-.13h0a.59.59,0,0,0,.19.13" transform="translate(1.47 0.73)"/><g class="cls-14"><rect class="cls-15" x="6.39" y="19.8" width="0.02" height="0.02" transform="translate(-10.66 11.06) rotate(-45.01)"/></g><g class="cls-16"><rect class="cls-17" x="5.96" y="11.88" width="10.94" height="10.94" transform="translate(-7.45 13.9) rotate(-45)"/></g><g class="cls-18"><rect class="cls-19" x="5.79" y="18.85" width="0.9" height="0.9" transform="translate(-10.35 10.79) rotate(-45)"/></g><g class="cls-20"><rect class="cls-21" x="6.35" y="19.71" width="0.06" height="0.06" transform="translate(-10.62 11.02) rotate(-45)"/></g><path class="cls-2" d="M16.52,14.75l3-1.69Z" transform="translate(1.47 0.73)"/><g class="cls-22"><rect class="cls-23" x="17.93" y="12.91" width="3.67" height="2.57"/></g><g class="cls-24"><rect class="cls-25" x="16.45" y="14.68" width="0.08" height="0.08" transform="translate(-4.11 16.7) rotate(-44.99)"/></g><path class="cls-26" d="M20.12,12.07a1.13,1.13,0,0,0-.62-.77,1.13,1.13,0,0,1,.62.77m-.62-.77L7.62,4.55l8.9,5.06h0ZM6.07,5.45v0m0,0v0m0,0v0m0,0v0m0,0a1.15,1.15,0,0,1,.27-.72.76.76,0,0,1,.4-.22.92.92,0,0,0-.67.94m.67-.94h0m0,0h0m0,0h0" transform="translate(1.47 0.73)"/><g class="cls-27"><rect class="cls-28" x="17.93" y="10.34" width="3.67" height="2.57"/></g><g class="cls-29"><rect class="cls-30" x="5.96" y="1.53" width="10.94" height="10.94" transform="translate(-0.13 10.87) rotate(-45)"/></g></g></g></svg>