<?xml version="1.0" encoding="utf-8"?>
<!-- Generator: Adobe Illustrator 23.0.6, SVG Export Plug-In . SVG Version: 6.00 Build 0)  -->
<svg version="1.1" id="Слой_1" xmlns="http://www.w3.org/2000/svg" xmlns:xlink="http://www.w3.org/1999/xlink" x="0px" y="0px"
	 viewBox="0 0 512 512" style="enable-background:new 0 0 512 512;" xml:space="preserve">
<style type="text/css">
	.st0{fill:url(#SVGID_1_);}
	.st1{fill:#FFFFFF;}
	.st2{fill:#231F20;}
</style>
<linearGradient id="SVGID_1_" gradientUnits="userSpaceOnUse" x1="256" y1="-0.1102" x2="256" y2="511.8898" gradientTransform="matrix(1 0 0 -1 0 511.8898)">
	<stop  offset="0.1078" style="stop-color:#D5D3FF"/>
	<stop  offset="0.2388" style="stop-color:#CDD0FF"/>
	<stop  offset="0.4374" style="stop-color:#B8C9FF"/>
	<stop  offset="0.6789" style="stop-color:#96BDFF"/>
	<stop  offset="0.952" style="stop-color:#67ACFF"/>
	<stop  offset="1" style="stop-color:#5EA9FF"/>
</linearGradient>
<path class="st0" d="M512,0H0v512h512V0z"/>
<g>
	<path class="st1" d="M418.1,208.3c0-6.1-2.7-11.8-7.5-15.6L268.5,78.4c-7.3-5.9-17.8-5.9-25.1,0L101.3,192.7
		c-4.7,3.8-7.5,9.5-7.5,15.6v189.8c0,11,9,20,20,20h284.3c11,0,20-9,20-20V208.3z"/>
	<g>
		<path class="st1" d="M434.9,237.4c-2.4,0-4.9-0.8-6.9-2.4L254,95c-4.7-3.8-5.5-10.7-1.7-15.5c3.8-4.7,10.7-5.5,15.5-1.7l174,139.9
			c4.7,3.8,5.5,10.7,1.7,15.5C441.3,236,438.1,237.4,434.9,237.4z"/>
	</g>
	<g>
		<path class="st1" d="M250.7,75.4c-2.4,0-4.9,0.8-6.9,2.4l-174,139.9c-4.7,3.8-5.5,10.7-1.7,15.5c3.8,4.7,10.7,5.5,15.5,1.7
			L257.6,95c4.7-3.8,5.5-10.7,1.7-15.5C257.1,76.8,253.9,75.4,250.7,75.4z"/>
	</g>
</g>
<g>
	<path class="st2" d="M306.6,215.9c10.8,0,20.7,1.9,30.3,5.7c9.6,4.1,17.6,9.3,24.6,16.1c7,6.8,12.5,14.8,16.5,24
		c4.1,9.1,5.9,19.1,5.9,29.5c0,10.4-1.9,20.4-5.9,29.5c-4.1,9.1-9.6,17.1-16.5,24c-7,6.8-15,12.1-24.6,15.8
		c-9.6,4.1-19.5,5.9-30.3,5.9h-57.7V215.9H306.6z M325.7,334.4c5.7-2.3,10.6-5.7,14.7-10c4.1-4.2,7-9.3,9.3-15
		c2.3-5.7,3.4-11.7,3.4-18.2c0-6.5-1-12.7-3.4-18.4c-2.3-5.7-5.2-10.6-9.3-14.8c-4.1-4.2-8.9-7.7-14.7-10.1
		c-5.7-2.3-12.1-3.6-19.1-3.6h-26.9v94.2h26.9C313.6,338.2,320,337,325.7,334.4z"/>
	<path class="st2" d="M174,213.3c-25.4,0-46,20.6-46,46c0,25.4,20.6,46,46,46s46-20.6,46-46C219.9,234,199.4,213.3,174,213.3z
		 M174,278.2c-10.5,0-18.9-8.5-18.9-18.9c0-10.5,8.5-18.9,18.9-18.9c10.5,0,18.9,8.5,18.9,18.9C192.9,269.7,184.4,278.2,174,278.2z"
		/>
</g>
</svg>
